M48
;Layer_Color=9474304
;FILE_FORMAT=4:4
METRIC,LZ
T6F00S00C5.0800
%
G90
G05
T06
G00X00415048Y-00024893
M15
G01X00419895Y-00023393
G01X00424347Y-0002096
G01X00428227Y-0001769
G01X00431379Y-00013715
G01X00433678Y-00009192
G01X00435033Y-00004303
G01X004354Y0
G01X004354Y00585
G01X00434893Y00590048
G01X00433393Y00594895
G01X0043096Y00599347
G01X0042769Y00603227
G01X00423715Y00606379
G01X00419192Y00608678
G01X00414303Y00610033
G01X0041Y006104
G01X0Y006104
G01X-00005048Y00609893
G01X-00009895Y00608393
G01X-00014347Y0060596
G01X-00018227Y0060269
G01X-00021379Y00598715
G01X-00023678Y00594192
G01X-00025033Y00589303
G01X-000254Y00585
G01X-000254Y0
G01X-00024893Y-00005048
G01X-00023393Y-00009895
G01X-0002096Y-00014347
G01X-0001769Y-00018227
G01X-00013715Y-00021379
G01X-00009192Y-00023678
G01X-00004303Y-00025033
G01X0Y-000254
G01X0041Y-000254
G01X00415048Y-00024893
M16
M17
M30
