%FSLAX44Y44*%
%MOMM*%
G71*
G01*
G75*
G04 Layer_Color=2752767*
%ADD10R,0.6000X0.9000*%
%ADD11R,0.9000X0.6000*%
%ADD12R,1.3000X0.7000*%
%ADD13R,1.6800X1.5200*%
%ADD14O,0.3000X1.5000*%
%ADD15R,0.3000X1.5000*%
%ADD16R,1.5000X0.3000*%
%ADD17R,2.0000X1.2000*%
%ADD18R,5.6000X5.6000*%
%ADD19R,5.5000X2.0000*%
%ADD20C,1.0000*%
%ADD21C,0.2000*%
%ADD22C,1.5000*%
%ADD23O,0.7500X0.7000*%
%ADD24R,1.5000X1.5000*%
%ADD25C,2.0000*%
%ADD26C,0.7000*%
%ADD27R,0.2000X1.4000*%
%ADD28R,0.2000X1.4000*%
%ADD29R,1.0000X1.3000*%
%ADD30R,1.3000X1.0000*%
%ADD31R,1.7000X1.1000*%
%ADD32R,2.0800X1.9200*%
%ADD33O,0.7000X1.9000*%
%ADD34R,0.7000X1.9000*%
%ADD35R,1.9000X0.7000*%
%ADD36R,2.4000X1.6000*%
%ADD37R,6.0000X6.0000*%
%ADD38R,5.9000X2.4000*%
%ADD39C,1.9000*%
%ADD40O,1.1500X1.1000*%
%ADD41R,1.9000X1.9000*%
%ADD42C,2.4000*%
%ADD43C,0.9032*%
%ADD44C,0.0667*%
%ADD45C,0.3810*%
%ADD46C,0.2540*%
%ADD47C,0.4064*%
%ADD48C,0.1524*%
D44*
X499004Y93980D02*
G03*
X499004Y93980I-6350J0D01*
G01*
X81833Y115000D02*
G03*
X81833Y115000I-3333J0D01*
G01*
X119333Y90000D02*
G03*
X119333Y90000I-3333J0D01*
G01*
X69333D02*
G03*
X69333Y90000I-3333J0D01*
G01*
X106833Y115000D02*
G03*
X106833Y115000I-3333J0D01*
G01*
X94333Y90000D02*
G03*
X94333Y90000I-3333J0D01*
G01*
X56833Y115000D02*
G03*
X56833Y115000I-3333J0D01*
G01*
X486304Y201930D02*
X492654Y205105D01*
X499004Y201930D01*
X495829Y208280D02*
X499004Y201930D01*
X495829Y208280D02*
X499004Y214630D01*
X492654Y211455D02*
X499004Y214630D01*
X486304D02*
X492654Y211455D01*
X486304Y214630D02*
X489479Y208280D01*
X486304Y201930D02*
X489479Y208280D01*
Y167005D02*
X492654Y163830D01*
X486304Y167005D02*
X489479D01*
X486304D02*
X489479Y170180D01*
X486304Y173355D02*
X489479Y170180D01*
X486304Y173355D02*
X489479D01*
X492654Y176530D01*
X495829Y173355D01*
X499004D01*
X495829Y170180D02*
X499004Y173355D01*
X495829Y170180D02*
X499004Y167005D01*
X495829D02*
X499004D01*
X492654Y163830D02*
X495829Y167005D01*
X492654Y125730D02*
X499004Y138430D01*
X486304D02*
X499004D01*
X486304D02*
X492654Y125730D01*
X486304Y49530D02*
X499004D01*
Y62230D01*
X486304D02*
X499004D01*
X486304Y49530D02*
Y62230D01*
X121667Y146667D02*
X128333D01*
Y153333D01*
X121667D02*
X128333D01*
X121667Y146667D02*
Y153333D01*
X123667Y258667D02*
X130333D01*
Y265333D01*
X123667D02*
X130333D01*
X123667Y258667D02*
Y265333D01*
X100167Y194167D02*
X106833D01*
Y200833D01*
X100167D02*
X106833D01*
X100167Y194167D02*
Y200833D01*
X346167Y132667D02*
X352833D01*
Y139333D01*
X346167D02*
X352833D01*
X346167Y132667D02*
Y139333D01*
Y115667D02*
X352833D01*
Y122333D01*
X346167D02*
X352833D01*
X346167Y115667D02*
Y122333D01*
Y96667D02*
X352833D01*
Y103333D01*
X346167D02*
X352833D01*
X346167Y96667D02*
Y103333D01*
X240667Y97667D02*
X247333D01*
Y104333D01*
X240667D02*
X247333D01*
X240667Y97667D02*
Y104333D01*
Y114667D02*
X247333D01*
Y121333D01*
X240667D02*
X247333D01*
X240667Y114667D02*
Y121333D01*
X240167Y131667D02*
X246833D01*
Y138333D01*
X240167D02*
X246833D01*
X240167Y131667D02*
Y138333D01*
X45667Y193667D02*
X52333D01*
Y200333D01*
X45667D02*
X52333D01*
X45667Y193667D02*
Y200333D01*
X363667Y370667D02*
X370333D01*
Y377333D01*
X363667D02*
X370333D01*
X363667Y370667D02*
Y377333D01*
X151667Y234667D02*
X158333D01*
Y241333D01*
X151667D02*
X158333D01*
X151667Y234667D02*
Y241333D01*
X142667Y243667D02*
X149333D01*
Y250333D01*
X142667D02*
X149333D01*
X142667Y243667D02*
Y250333D01*
X162667Y512667D02*
X169333D01*
Y519333D01*
X162667D02*
X169333D01*
X162667Y512667D02*
Y519333D01*
X311667Y513667D02*
X318333D01*
Y520333D01*
X311667D02*
X318333D01*
X311667Y513667D02*
Y520333D01*
X364667Y514667D02*
X371333D01*
Y521333D01*
X364667D02*
X371333D01*
X364667Y514667D02*
Y521333D01*
X108667Y514667D02*
X115333D01*
Y521333D01*
X108667D02*
X115333D01*
X108667Y514667D02*
Y521333D01*
X51667Y514667D02*
X58333D01*
Y521333D01*
X51667D02*
X58333D01*
X51667Y514667D02*
Y521333D01*
X11667Y312667D02*
X18333D01*
Y319333D01*
X11667D02*
X18333D01*
X11667Y312667D02*
Y319333D01*
X47667Y375267D02*
X54333D01*
Y381934D01*
X47667D02*
X54333D01*
X47667Y375267D02*
Y381934D01*
X11667Y238667D02*
X18333D01*
Y245333D01*
X11667D02*
X18333D01*
X11667Y238667D02*
Y245333D01*
X280667Y289667D02*
X287333D01*
Y296333D01*
X280667D02*
X287333D01*
X280667Y289667D02*
Y296333D01*
X318667Y289667D02*
X325333D01*
Y296333D01*
X318667D02*
X325333D01*
X318667Y289667D02*
Y296333D01*
X264667Y289667D02*
X271333D01*
Y296333D01*
X264667D02*
X271333D01*
X264667Y289667D02*
Y296333D01*
X214667Y220667D02*
X221333D01*
Y227333D01*
X214667D02*
X221333D01*
X214667Y220667D02*
Y227333D01*
Y259667D02*
X221333D01*
Y266333D01*
X214667D02*
X221333D01*
X214667Y259667D02*
Y266333D01*
Y245667D02*
X221333D01*
Y252333D01*
X214667D02*
X221333D01*
X214667Y245667D02*
Y252333D01*
X362667Y383667D02*
X369333D01*
Y390333D01*
X362667D02*
X369333D01*
X362667Y383667D02*
Y390333D01*
X214333Y489333D02*
X216000Y487667D01*
X212667Y489333D02*
X214333D01*
X212667D02*
X214333Y491000D01*
X212667Y492667D02*
X214333Y491000D01*
X212667Y492667D02*
X214333D01*
X216000Y494333D01*
X217667Y492667D01*
X219333D01*
X217667Y491000D02*
X219333Y492667D01*
X217667Y491000D02*
X219333Y489333D01*
X217667D02*
X219333D01*
X216000Y487667D02*
X217667Y489333D01*
X264333D02*
X266000Y487667D01*
X262667Y489333D02*
X264333D01*
X262667D02*
X264333Y491000D01*
X262667Y492667D02*
X264333Y491000D01*
X262667Y492667D02*
X264333D01*
X266000Y494333D01*
X267667Y492667D01*
X269333D01*
X267667Y491000D02*
X269333Y492667D01*
X267667Y491000D02*
X269333Y489333D01*
X267667D02*
X269333D01*
X266000Y487667D02*
X267667Y489333D01*
X164333D02*
X166000Y487667D01*
X162667Y489333D02*
X164333D01*
X162667D02*
X164333Y491000D01*
X162667Y492667D02*
X164333Y491000D01*
X162667Y492667D02*
X164333D01*
X166000Y494333D01*
X167667Y492667D01*
X169333D01*
X167667Y491000D02*
X169333Y492667D01*
X167667Y491000D02*
X169333Y489333D01*
X167667D02*
X169333D01*
X166000Y487667D02*
X167667Y489333D01*
X278500Y100667D02*
X281833Y107333D01*
X275167D02*
X281833D01*
X275167D02*
X278500Y100667D01*
X243500Y150667D02*
X246833Y157333D01*
X240167D02*
X246833D01*
X240167D02*
X243500Y150667D01*
X384500Y100667D02*
X387833Y107333D01*
X381167D02*
X387833D01*
X381167D02*
X384500Y100667D01*
X349500Y150667D02*
X352833Y157333D01*
X346167D02*
X352833D01*
X346167D02*
X349500Y150667D01*
X29667Y22667D02*
X33000Y24333D01*
X36333Y22667D01*
X34667Y26000D02*
X36333Y22667D01*
X34667Y26000D02*
X36333Y29333D01*
X33000Y27667D02*
X36333Y29333D01*
X29667D02*
X33000Y27667D01*
X29667Y29333D02*
X31333Y26000D01*
X29667Y22667D02*
X31333Y26000D01*
X131667Y22667D02*
X135000Y24333D01*
X138333Y22667D01*
X136667Y26000D02*
X138333Y22667D01*
X136667Y26000D02*
X138333Y29333D01*
X135000Y27667D02*
X138333Y29333D01*
X131667D02*
X135000Y27667D01*
X131667Y29333D02*
X133333Y26000D01*
X131667Y22667D02*
X133333Y26000D01*
D45*
X469000Y228600D02*
X1454259D01*
X469000Y38100D02*
X1454259D01*
X469000Y0D02*
X1454259D01*
Y266700D01*
X469000D02*
X1454259D01*
X469000Y0D02*
Y266700D01*
X1256443Y0D02*
Y266700D01*
X1127951Y0D02*
Y266700D01*
X786167Y0D02*
Y266700D01*
X608922Y0D02*
Y266700D01*
D46*
X-38540Y585000D02*
X-2540D01*
X-38540Y0D02*
X-2540D01*
X-36000Y326779D02*
Y585000D01*
Y0D02*
Y250093D01*
X-41080Y569760D02*
X-36000Y585000D01*
X-30920Y569760D01*
X-36000Y0D02*
X-30920Y15240D01*
X-41080D02*
X-36000Y0D01*
X410000Y-36540D02*
Y-2540D01*
X0Y-36540D02*
Y-2540D01*
X238009Y-34000D02*
X410000D01*
X0D02*
X163863D01*
X394760Y-28920D02*
X410000Y-34000D01*
X394760Y-39080D02*
X410000Y-34000D01*
X0D02*
X15240Y-39080D01*
X0Y-34000D02*
X15240Y-28920D01*
X1267873Y201930D02*
Y217165D01*
X1275490D01*
X1278030Y214626D01*
Y209548D01*
X1275490Y207008D01*
X1267873D01*
X1272951D02*
X1278030Y201930D01*
X1285647D02*
X1290726D01*
X1293265Y204469D01*
Y209548D01*
X1290726Y212087D01*
X1285647D01*
X1283108Y209548D01*
Y204469D01*
X1285647Y201930D01*
X1298343Y212087D02*
Y204469D01*
X1300882Y201930D01*
X1308500D01*
Y212087D01*
X1313578Y201930D02*
Y212087D01*
X1321196D01*
X1323735Y209548D01*
Y201930D01*
X1338970Y217165D02*
Y201930D01*
X1331352D01*
X1328813Y204469D01*
Y209548D01*
X1331352Y212087D01*
X1338970D01*
X1267873Y163830D02*
Y179065D01*
X1275490D01*
X1278030Y176526D01*
Y171448D01*
X1275490Y168908D01*
X1267873D01*
X1272951D02*
X1278030Y163830D01*
X1285647D02*
X1290726D01*
X1293265Y166369D01*
Y171448D01*
X1290726Y173987D01*
X1285647D01*
X1283108Y171448D01*
Y166369D01*
X1285647Y163830D01*
X1298343Y173987D02*
Y166369D01*
X1300882Y163830D01*
X1308500D01*
Y173987D01*
X1313578Y163830D02*
Y173987D01*
X1321196D01*
X1323735Y171448D01*
Y163830D01*
X1338970Y179065D02*
Y163830D01*
X1331352D01*
X1328813Y166369D01*
Y171448D01*
X1331352Y173987D01*
X1338970D01*
X1267873Y125730D02*
Y140965D01*
X1275490D01*
X1278030Y138426D01*
Y133348D01*
X1275490Y130808D01*
X1267873D01*
X1272951D02*
X1278030Y125730D01*
X1285647D02*
X1290726D01*
X1293265Y128269D01*
Y133348D01*
X1290726Y135887D01*
X1285647D01*
X1283108Y133348D01*
Y128269D01*
X1285647Y125730D01*
X1298343Y135887D02*
Y128269D01*
X1300882Y125730D01*
X1308500D01*
Y135887D01*
X1313578Y125730D02*
Y135887D01*
X1321196D01*
X1323735Y133348D01*
Y125730D01*
X1338970Y140965D02*
Y125730D01*
X1331352D01*
X1328813Y128269D01*
Y133348D01*
X1331352Y135887D01*
X1338970D01*
X1267873Y87630D02*
Y102865D01*
X1275490D01*
X1278030Y100326D01*
Y95247D01*
X1275490Y92708D01*
X1267873D01*
X1272951D02*
X1278030Y87630D01*
X1285647D02*
X1290726D01*
X1293265Y90169D01*
Y95247D01*
X1290726Y97787D01*
X1285647D01*
X1283108Y95247D01*
Y90169D01*
X1285647Y87630D01*
X1298343Y97787D02*
Y90169D01*
X1300882Y87630D01*
X1308500D01*
Y97787D01*
X1313578Y87630D02*
Y97787D01*
X1321196D01*
X1323735Y95247D01*
Y87630D01*
X1338970Y102865D02*
Y87630D01*
X1331352D01*
X1328813Y90169D01*
Y95247D01*
X1331352Y97787D01*
X1338970D01*
X1267873Y49530D02*
Y64765D01*
X1275490D01*
X1278030Y62226D01*
Y57147D01*
X1275490Y54608D01*
X1267873D01*
X1272951D02*
X1278030Y49530D01*
X1285647D02*
X1290726D01*
X1293265Y52069D01*
Y57147D01*
X1290726Y59687D01*
X1285647D01*
X1283108Y57147D01*
Y52069D01*
X1285647Y49530D01*
X1298343Y59687D02*
Y52069D01*
X1300882Y49530D01*
X1308500D01*
Y59687D01*
X1313578Y49530D02*
Y59687D01*
X1321196D01*
X1323735Y57147D01*
Y49530D01*
X1338970Y64765D02*
Y49530D01*
X1331352D01*
X1328813Y52069D01*
Y57147D01*
X1331352Y59687D01*
X1338970D01*
X1139380Y201930D02*
Y217165D01*
X1149537Y201930D01*
Y217165D01*
X1154616Y201930D02*
Y217165D01*
X1162233D01*
X1164772Y214626D01*
Y209548D01*
X1162233Y207008D01*
X1154616D01*
X1169851Y217165D02*
X1180007D01*
X1174929D01*
Y201930D01*
X1185086Y217165D02*
Y201930D01*
Y209548D01*
X1195242D01*
Y217165D01*
Y201930D01*
X1139380Y163830D02*
Y179065D01*
X1146998D01*
X1149537Y176526D01*
Y171448D01*
X1146998Y168908D01*
X1139380D01*
X1154616Y179065D02*
X1164772D01*
X1159694D01*
Y163830D01*
X1169851Y179065D02*
Y163830D01*
Y171448D01*
X1180007D01*
Y179065D01*
Y163830D01*
X1139380Y125730D02*
Y140965D01*
X1146998D01*
X1149537Y138426D01*
Y133348D01*
X1146998Y130808D01*
X1139380D01*
X1154616Y140965D02*
X1164772D01*
X1159694D01*
Y125730D01*
X1169851Y140965D02*
Y125730D01*
Y133348D01*
X1180007D01*
Y140965D01*
Y125730D01*
X1139380Y87630D02*
Y102865D01*
X1146998D01*
X1149537Y100326D01*
Y95247D01*
X1146998Y92708D01*
X1139380D01*
X1154616Y102865D02*
X1164772D01*
X1159694D01*
Y87630D01*
X1169851Y102865D02*
Y87630D01*
Y95247D01*
X1180007D01*
Y102865D01*
Y87630D01*
X1139380Y49530D02*
Y64765D01*
X1146998D01*
X1149537Y62226D01*
Y57147D01*
X1146998Y54608D01*
X1139380D01*
X1154616Y64765D02*
X1164772D01*
X1159694D01*
Y49530D01*
X1169851Y64765D02*
Y49530D01*
Y57147D01*
X1180007D01*
Y64765D01*
Y49530D01*
X797597Y214626D02*
X800136Y217165D01*
X805215D01*
X807754Y214626D01*
Y212087D01*
X805215Y209548D01*
X802675D01*
X805215D01*
X807754Y207008D01*
Y204469D01*
X805215Y201930D01*
X800136D01*
X797597Y204469D01*
X812832Y201930D02*
Y204469D01*
X815371D01*
Y201930D01*
X812832D01*
X835685D02*
X825528D01*
X835685Y212087D01*
Y214626D01*
X833146Y217165D01*
X828067D01*
X825528Y214626D01*
X850920Y217165D02*
X840763D01*
Y209548D01*
X845842Y212087D01*
X848381D01*
X850920Y209548D01*
Y204469D01*
X848381Y201930D01*
X843302D01*
X840763Y204469D01*
X855998Y214626D02*
X858537Y217165D01*
X863616D01*
X866155Y214626D01*
Y204469D01*
X863616Y201930D01*
X858537D01*
X855998Y204469D01*
Y214626D01*
X871233Y201930D02*
Y212087D01*
X873772D01*
X876312Y209548D01*
Y201930D01*
Y209548D01*
X878851Y212087D01*
X881390Y209548D01*
Y201930D01*
X886468D02*
Y212087D01*
X889007D01*
X891547Y209548D01*
Y201930D01*
Y209548D01*
X894086Y212087D01*
X896625Y209548D01*
Y201930D01*
X922017D02*
X916938Y207008D01*
Y212087D01*
X922017Y217165D01*
X929634Y201930D02*
X934713D01*
X932173D01*
Y217165D01*
X929634Y214626D01*
X952487Y201930D02*
X942330D01*
X952487Y212087D01*
Y214626D01*
X949948Y217165D01*
X944869D01*
X942330Y214626D01*
X957565Y217165D02*
X967722D01*
Y214626D01*
X957565Y204469D01*
Y201930D01*
X972800D02*
Y204469D01*
X975340D01*
Y201930D01*
X972800D01*
X985496Y204469D02*
X988036Y201930D01*
X993114D01*
X995653Y204469D01*
Y214626D01*
X993114Y217165D01*
X988036D01*
X985496Y214626D01*
Y212087D01*
X988036Y209548D01*
X995653D01*
X1010888Y217165D02*
X1000731D01*
Y209548D01*
X1005810Y212087D01*
X1008349D01*
X1010888Y209548D01*
Y204469D01*
X1008349Y201930D01*
X1003270D01*
X1000731Y204469D01*
X1015966Y201930D02*
Y212087D01*
X1018506D01*
X1021045Y209548D01*
Y201930D01*
Y209548D01*
X1023584Y212087D01*
X1026123Y209548D01*
Y201930D01*
X1031201D02*
X1036280D01*
X1033741D01*
Y212087D01*
X1031201D01*
X1043897Y201930D02*
X1048976D01*
X1046437D01*
Y217165D01*
X1043897D01*
X1056593Y201930D02*
X1061672Y207008D01*
Y212087D01*
X1056593Y217165D01*
X797597Y163830D02*
X802675D01*
X800136D01*
Y179065D01*
X797597Y176526D01*
X810293Y163830D02*
Y166369D01*
X812832D01*
Y163830D01*
X810293D01*
X833146D02*
X822989D01*
X833146Y173987D01*
Y176526D01*
X830606Y179065D01*
X825528D01*
X822989Y176526D01*
X838224D02*
X840763Y179065D01*
X845842D01*
X848381Y176526D01*
Y166369D01*
X845842Y163830D01*
X840763D01*
X838224Y166369D01*
Y176526D01*
X853459D02*
X855998Y179065D01*
X861077D01*
X863616Y176526D01*
Y166369D01*
X861077Y163830D01*
X855998D01*
X853459Y166369D01*
Y176526D01*
X868694Y163830D02*
Y173987D01*
X871233D01*
X873772Y171448D01*
Y163830D01*
Y171448D01*
X876312Y173987D01*
X878851Y171448D01*
Y163830D01*
X883929D02*
Y173987D01*
X886468D01*
X889007Y171448D01*
Y163830D01*
Y171448D01*
X891547Y173987D01*
X894086Y171448D01*
Y163830D01*
X919478D02*
X914399Y168908D01*
Y173987D01*
X919478Y179065D01*
X934713Y163830D02*
Y179065D01*
X927095Y171448D01*
X937252D01*
X942330Y179065D02*
X952487D01*
Y176526D01*
X942330Y166369D01*
Y163830D01*
X957565D02*
Y166369D01*
X960105D01*
Y163830D01*
X957565D01*
X980418D02*
X970261D01*
X980418Y173987D01*
Y176526D01*
X977879Y179065D01*
X972800D01*
X970261Y176526D01*
X993114Y163830D02*
Y179065D01*
X985496Y171448D01*
X995653D01*
X1000731Y163830D02*
Y173987D01*
X1003270D01*
X1005810Y171448D01*
Y163830D01*
Y171448D01*
X1008349Y173987D01*
X1010888Y171448D01*
Y163830D01*
X1015966D02*
X1021045D01*
X1018506D01*
Y173987D01*
X1015966D01*
X1028662Y163830D02*
X1033741D01*
X1031201D01*
Y179065D01*
X1028662D01*
X1041358Y163830D02*
X1046436Y168908D01*
Y173987D01*
X1041358Y179065D01*
X797597Y125730D02*
X802675D01*
X800136D01*
Y140965D01*
X797597Y138426D01*
X810293Y125730D02*
Y128269D01*
X812832D01*
Y125730D01*
X810293D01*
X822989Y138426D02*
X825528Y140965D01*
X830606D01*
X833146Y138426D01*
Y128269D01*
X830606Y125730D01*
X825528D01*
X822989Y128269D01*
Y138426D01*
X838224D02*
X840763Y140965D01*
X845842D01*
X848381Y138426D01*
Y128269D01*
X845842Y125730D01*
X840763D01*
X838224Y128269D01*
Y138426D01*
X853459D02*
X855998Y140965D01*
X861077D01*
X863616Y138426D01*
Y128269D01*
X861077Y125730D01*
X855998D01*
X853459Y128269D01*
Y138426D01*
X868694Y125730D02*
Y135887D01*
X871233D01*
X873772Y133348D01*
Y125730D01*
Y133348D01*
X876312Y135887D01*
X878851Y133348D01*
Y125730D01*
X883929D02*
Y135887D01*
X886468D01*
X889007Y133348D01*
Y125730D01*
Y133348D01*
X891547Y135887D01*
X894086Y133348D01*
Y125730D01*
X919478D02*
X914399Y130808D01*
Y135887D01*
X919478Y140965D01*
X927095Y138426D02*
X929634Y140965D01*
X934713D01*
X937252Y138426D01*
Y135887D01*
X934713Y133348D01*
X932173D01*
X934713D01*
X937252Y130808D01*
Y128269D01*
X934713Y125730D01*
X929634D01*
X927095Y128269D01*
X942330D02*
X944869Y125730D01*
X949948D01*
X952487Y128269D01*
Y138426D01*
X949948Y140965D01*
X944869D01*
X942330Y138426D01*
Y135887D01*
X944869Y133348D01*
X952487D01*
X957565Y125730D02*
Y128269D01*
X960105D01*
Y125730D01*
X957565D01*
X970261Y138426D02*
X972800Y140965D01*
X977879D01*
X980418Y138426D01*
Y135887D01*
X977879Y133348D01*
X975340D01*
X977879D01*
X980418Y130808D01*
Y128269D01*
X977879Y125730D01*
X972800D01*
X970261Y128269D01*
X985496Y140965D02*
X995653D01*
Y138426D01*
X985496Y128269D01*
Y125730D01*
X1000731D02*
Y135887D01*
X1003270D01*
X1005810Y133348D01*
Y125730D01*
Y133348D01*
X1008349Y135887D01*
X1010888Y133348D01*
Y125730D01*
X1015966D02*
X1021045D01*
X1018506D01*
Y135887D01*
X1015966D01*
X1028662Y125730D02*
X1033741D01*
X1031201D01*
Y140965D01*
X1028662D01*
X1041358Y125730D02*
X1046436Y130808D01*
Y135887D01*
X1041358Y140965D01*
X797597Y100326D02*
X800136Y102865D01*
X805215D01*
X807754Y100326D01*
Y90169D01*
X805215Y87630D01*
X800136D01*
X797597Y90169D01*
Y100326D01*
X812832Y87630D02*
Y90169D01*
X815371D01*
Y87630D01*
X812832D01*
X825528Y90169D02*
X828067Y87630D01*
X833146D01*
X835685Y90169D01*
Y100326D01*
X833146Y102865D01*
X828067D01*
X825528Y100326D01*
Y97787D01*
X828067Y95247D01*
X835685D01*
X840763Y100326D02*
X843302Y102865D01*
X848381D01*
X850920Y100326D01*
Y90169D01*
X848381Y87630D01*
X843302D01*
X840763Y90169D01*
Y100326D01*
X855998D02*
X858537Y102865D01*
X863616D01*
X866155Y100326D01*
Y90169D01*
X863616Y87630D01*
X858537D01*
X855998Y90169D01*
Y100326D01*
X871233Y87630D02*
Y97787D01*
X873772D01*
X876312Y95247D01*
Y87630D01*
Y95247D01*
X878851Y97787D01*
X881390Y95247D01*
Y87630D01*
X886468D02*
Y97787D01*
X889007D01*
X891547Y95247D01*
Y87630D01*
Y95247D01*
X894086Y97787D01*
X896625Y95247D01*
Y87630D01*
X922017D02*
X916938Y92708D01*
Y97787D01*
X922017Y102865D01*
X929634Y100326D02*
X932173Y102865D01*
X937252D01*
X939791Y100326D01*
Y97787D01*
X937252Y95247D01*
X934713D01*
X937252D01*
X939791Y92708D01*
Y90169D01*
X937252Y87630D01*
X932173D01*
X929634Y90169D01*
X955026Y102865D02*
X944869D01*
Y95247D01*
X949948Y97787D01*
X952487D01*
X955026Y95247D01*
Y90169D01*
X952487Y87630D01*
X947409D01*
X944869Y90169D01*
X960105Y87630D02*
Y90169D01*
X962644D01*
Y87630D01*
X960105D01*
X980418D02*
Y102865D01*
X972800Y95247D01*
X982957D01*
X988036Y100326D02*
X990575Y102865D01*
X995653D01*
X998192Y100326D01*
Y97787D01*
X995653Y95247D01*
X993114D01*
X995653D01*
X998192Y92708D01*
Y90169D01*
X995653Y87630D01*
X990575D01*
X988036Y90169D01*
X1003270Y87630D02*
Y97787D01*
X1005810D01*
X1008349Y95247D01*
Y87630D01*
Y95247D01*
X1010888Y97787D01*
X1013427Y95247D01*
Y87630D01*
X1018506D02*
X1023584D01*
X1021045D01*
Y97787D01*
X1018506D01*
X1031201Y87630D02*
X1036280D01*
X1033741D01*
Y102865D01*
X1031201D01*
X1043897Y87630D02*
X1048976Y92708D01*
Y97787D01*
X1043897Y102865D01*
X797597Y62226D02*
X800136Y64765D01*
X805215D01*
X807754Y62226D01*
Y52069D01*
X805215Y49530D01*
X800136D01*
X797597Y52069D01*
Y62226D01*
X812832Y49530D02*
Y52069D01*
X815371D01*
Y49530D01*
X812832D01*
X825528Y62226D02*
X828067Y64765D01*
X833146D01*
X835685Y62226D01*
Y59687D01*
X833146Y57147D01*
X830606D01*
X833146D01*
X835685Y54608D01*
Y52069D01*
X833146Y49530D01*
X828067D01*
X825528Y52069D01*
X840763Y62226D02*
X843302Y64765D01*
X848381D01*
X850920Y62226D01*
Y52069D01*
X848381Y49530D01*
X843302D01*
X840763Y52069D01*
Y62226D01*
X855998D02*
X858537Y64765D01*
X863616D01*
X866155Y62226D01*
Y52069D01*
X863616Y49530D01*
X858537D01*
X855998Y52069D01*
Y62226D01*
X871233Y49530D02*
Y59687D01*
X873772D01*
X876312Y57147D01*
Y49530D01*
Y57147D01*
X878851Y59687D01*
X881390Y57147D01*
Y49530D01*
X886468D02*
Y59687D01*
X889007D01*
X891547Y57147D01*
Y49530D01*
Y57147D01*
X894086Y59687D01*
X896625Y57147D01*
Y49530D01*
X922017D02*
X916938Y54608D01*
Y59687D01*
X922017Y64765D01*
X929634Y49530D02*
X934713D01*
X932173D01*
Y64765D01*
X929634Y62226D01*
X942330Y49530D02*
X947409D01*
X944869D01*
Y64765D01*
X942330Y62226D01*
X955026Y49530D02*
Y52069D01*
X957565D01*
Y49530D01*
X955026D01*
X967722Y62226D02*
X970261Y64765D01*
X975340D01*
X977879Y62226D01*
Y59687D01*
X975340Y57147D01*
X977879Y54608D01*
Y52069D01*
X975340Y49530D01*
X970261D01*
X967722Y52069D01*
Y54608D01*
X970261Y57147D01*
X967722Y59687D01*
Y62226D01*
X970261Y57147D02*
X975340D01*
X982957Y49530D02*
X988035D01*
X985496D01*
Y64765D01*
X982957Y62226D01*
X995653Y49530D02*
Y59687D01*
X998192D01*
X1000731Y57147D01*
Y49530D01*
Y57147D01*
X1003270Y59687D01*
X1005810Y57147D01*
Y49530D01*
X1010888D02*
X1015966D01*
X1013427D01*
Y59687D01*
X1010888D01*
X1023584Y49530D02*
X1028662D01*
X1026123D01*
Y64765D01*
X1023584D01*
X1036280Y49530D02*
X1041358Y54608D01*
Y59687D01*
X1036280Y64765D01*
X627970Y11430D02*
Y26665D01*
X620352Y19047D01*
X630509D01*
X635588Y24126D02*
X638127Y26665D01*
X643205D01*
X645744Y24126D01*
Y21587D01*
X643205Y19047D01*
X640666D01*
X643205D01*
X645744Y16508D01*
Y13969D01*
X643205Y11430D01*
X638127D01*
X635588Y13969D01*
X666058Y26665D02*
X676214D01*
X671136D01*
Y11430D01*
X683832D02*
X688910D01*
X691449Y13969D01*
Y19047D01*
X688910Y21587D01*
X683832D01*
X681293Y19047D01*
Y13969D01*
X683832Y11430D01*
X699067Y24126D02*
Y21587D01*
X696528D01*
X701606D01*
X699067D01*
Y13969D01*
X701606Y11430D01*
X711763Y21587D02*
X716841D01*
X719380Y19047D01*
Y11430D01*
X711763D01*
X709224Y13969D01*
X711763Y16508D01*
X719380D01*
X724459Y11430D02*
X729537D01*
X726998D01*
Y26665D01*
X724459D01*
X630509Y201930D02*
X620352D01*
X630509Y212087D01*
Y214626D01*
X627970Y217165D01*
X622892D01*
X620352Y214626D01*
Y176526D02*
X622892Y179065D01*
X627970D01*
X630509Y176526D01*
Y173987D01*
X627970Y171448D01*
X625431D01*
X627970D01*
X630509Y168908D01*
Y166369D01*
X627970Y163830D01*
X622892D01*
X620352Y166369D01*
X627970Y125730D02*
Y140965D01*
X620352Y133348D01*
X630509D01*
Y102865D02*
X625431Y100326D01*
X620352Y95247D01*
Y90169D01*
X622892Y87630D01*
X627970D01*
X630509Y90169D01*
Y92708D01*
X627970Y95247D01*
X620352D01*
X630509Y49530D02*
X620352D01*
X630509Y59687D01*
Y62226D01*
X627970Y64765D01*
X622892D01*
X620352Y62226D01*
X635588D02*
X638127Y64765D01*
X643205D01*
X645744Y62226D01*
Y59687D01*
X643205Y57147D01*
X645744Y54608D01*
Y52069D01*
X643205Y49530D01*
X638127D01*
X635588Y52069D01*
Y54608D01*
X638127Y57147D01*
X635588Y59687D01*
Y62226D01*
X638127Y57147D02*
X643205D01*
D47*
X1267873Y258312D02*
Y240030D01*
Y249171D01*
X1280061D01*
Y258312D01*
Y240030D01*
X1289202D02*
X1295296D01*
X1298343Y243077D01*
Y249171D01*
X1295296Y252218D01*
X1289202D01*
X1286155Y249171D01*
Y243077D01*
X1289202Y240030D01*
X1304437D02*
X1310531D01*
X1307484D01*
Y258312D01*
X1304437D01*
X1328813Y240030D02*
X1322719D01*
X1319672Y243077D01*
Y249171D01*
X1322719Y252218D01*
X1328813D01*
X1331860Y249171D01*
Y246124D01*
X1319672D01*
X1356236Y258312D02*
X1368424D01*
X1362330D01*
Y240030D01*
X1374518Y252218D02*
Y243077D01*
X1377565Y240030D01*
X1386707D01*
Y236983D01*
X1383660Y233936D01*
X1380612D01*
X1386707Y240030D02*
Y252218D01*
X1392800Y233936D02*
Y252218D01*
X1401942D01*
X1404989Y249171D01*
Y243077D01*
X1401942Y240030D01*
X1392800D01*
X1420224D02*
X1414130D01*
X1411083Y243077D01*
Y249171D01*
X1414130Y252218D01*
X1420224D01*
X1423271Y249171D01*
Y246124D01*
X1411083D01*
X1139380Y240030D02*
Y258312D01*
X1148522D01*
X1151569Y255265D01*
Y249171D01*
X1148522Y246124D01*
X1139380D01*
X1157663Y240030D02*
X1163757D01*
X1160710D01*
Y258312D01*
X1157663D01*
X1175945Y252218D02*
X1182039D01*
X1185086Y249171D01*
Y240030D01*
X1175945D01*
X1172898Y243077D01*
X1175945Y246124D01*
X1185086D01*
X1194227Y255265D02*
Y252218D01*
X1191180D01*
X1197274D01*
X1194227D01*
Y243077D01*
X1197274Y240030D01*
X1215556D02*
X1209462D01*
X1206415Y243077D01*
Y249171D01*
X1209462Y252218D01*
X1215556D01*
X1218603Y249171D01*
Y246124D01*
X1206415D01*
X1236885Y258312D02*
Y240030D01*
X1227744D01*
X1224697Y243077D01*
Y249171D01*
X1227744Y252218D01*
X1236885D01*
X809785Y258312D02*
X797597D01*
Y249171D01*
X803691D01*
X797597D01*
Y240030D01*
X815879D02*
X821973D01*
X818926D01*
Y252218D01*
X815879D01*
X831114Y240030D02*
Y252218D01*
X840255D01*
X843302Y249171D01*
Y240030D01*
X849396D02*
X855490D01*
X852443D01*
Y252218D01*
X849396D01*
X864631Y240030D02*
X873772D01*
X876820Y243077D01*
X873772Y246124D01*
X867678D01*
X864631Y249171D01*
X867678Y252218D01*
X876820D01*
X882914Y258312D02*
Y240030D01*
Y249171D01*
X885960Y252218D01*
X892055D01*
X895101Y249171D01*
Y240030D01*
X910337D02*
X904243D01*
X901196Y243077D01*
Y249171D01*
X904243Y252218D01*
X910337D01*
X913384Y249171D01*
Y246124D01*
X901196D01*
X931666Y258312D02*
Y240030D01*
X922525D01*
X919478Y243077D01*
Y249171D01*
X922525Y252218D01*
X931666D01*
X956042Y258312D02*
Y240030D01*
Y249171D01*
X968230D01*
Y258312D01*
Y240030D01*
X977371D02*
X983465D01*
X986512Y243077D01*
Y249171D01*
X983465Y252218D01*
X977371D01*
X974324Y249171D01*
Y243077D01*
X977371Y240030D01*
X992606D02*
X998700D01*
X995653D01*
Y258312D01*
X992606D01*
X1016982Y240030D02*
X1010888D01*
X1007841Y243077D01*
Y249171D01*
X1010888Y252218D01*
X1016982D01*
X1020029Y249171D01*
Y246124D01*
X1007841D01*
X1056593Y255265D02*
X1053546Y258312D01*
X1047452D01*
X1044405Y255265D01*
Y252218D01*
X1047452Y249171D01*
X1053546D01*
X1056593Y246124D01*
Y243077D01*
X1053546Y240030D01*
X1047452D01*
X1044405Y243077D01*
X1062687Y240030D02*
X1068781D01*
X1065734D01*
Y252218D01*
X1062687D01*
X1077922D02*
X1090110D01*
X1077922Y240030D01*
X1090110D01*
X1105346D02*
X1099251D01*
X1096204Y243077D01*
Y249171D01*
X1099251Y252218D01*
X1105346D01*
X1108392Y249171D01*
Y246124D01*
X1096204D01*
X620352Y258312D02*
Y240030D01*
Y249171D01*
X632541D01*
Y258312D01*
Y240030D01*
X638634D02*
X644728D01*
X641682D01*
Y252218D01*
X638634D01*
X656917Y255265D02*
Y252218D01*
X653870D01*
X659964D01*
X656917D01*
Y243077D01*
X659964Y240030D01*
X699575Y255265D02*
X696528Y258312D01*
X690434D01*
X687387Y255265D01*
Y243077D01*
X690434Y240030D01*
X696528D01*
X699575Y243077D01*
X708716Y240030D02*
X714810D01*
X717857Y243077D01*
Y249171D01*
X714810Y252218D01*
X708716D01*
X705669Y249171D01*
Y243077D01*
X708716Y240030D01*
X723951Y252218D02*
Y243077D01*
X726998Y240030D01*
X736139D01*
Y252218D01*
X742233Y240030D02*
Y252218D01*
X751374D01*
X754421Y249171D01*
Y240030D01*
X763562Y255265D02*
Y252218D01*
X760515D01*
X766609D01*
X763562D01*
Y243077D01*
X766609Y240030D01*
X504048Y255265D02*
X501001Y258312D01*
X494907D01*
X491860Y255265D01*
Y252218D01*
X494907Y249171D01*
X501001D01*
X504048Y246124D01*
Y243077D01*
X501001Y240030D01*
X494907D01*
X491860Y243077D01*
X510142Y252218D02*
Y243077D01*
X513189Y240030D01*
X522330D01*
Y236983D01*
X519283Y233936D01*
X516236D01*
X522330Y240030D02*
Y252218D01*
X528424Y240030D02*
Y252218D01*
X531471D01*
X534518Y249171D01*
Y240030D01*
Y249171D01*
X537565Y252218D01*
X540612Y249171D01*
Y240030D01*
X546706Y258312D02*
Y240030D01*
X555847D01*
X558894Y243077D01*
Y246124D01*
Y249171D01*
X555847Y252218D01*
X546706D01*
X568035Y240030D02*
X574129D01*
X577176Y243077D01*
Y249171D01*
X574129Y252218D01*
X568035D01*
X564988Y249171D01*
Y243077D01*
X568035Y240030D01*
X583270D02*
X589364D01*
X586317D01*
Y258312D01*
X583270D01*
D48*
X-42094Y264314D02*
Y254157D01*
X-34476D01*
X-37015Y259235D01*
Y261775D01*
X-34476Y264314D01*
X-29398D01*
X-26858Y261775D01*
Y256696D01*
X-29398Y254157D01*
X-39554Y269392D02*
X-42094Y271931D01*
Y277010D01*
X-39554Y279549D01*
X-37015D01*
X-34476Y277010D01*
X-31937Y279549D01*
X-29398D01*
X-26858Y277010D01*
Y271931D01*
X-29398Y269392D01*
X-31937D01*
X-34476Y271931D01*
X-37015Y269392D01*
X-39554D01*
X-34476Y271931D02*
Y277010D01*
X-26858Y284627D02*
X-29398D01*
Y287166D01*
X-26858D01*
Y284627D01*
X-42094Y307480D02*
Y297323D01*
X-34476D01*
X-37015Y302402D01*
Y304941D01*
X-34476Y307480D01*
X-29398D01*
X-26858Y304941D01*
Y299862D01*
X-29398Y297323D01*
X-39554Y312558D02*
X-42094Y315097D01*
Y320176D01*
X-39554Y322715D01*
X-29398D01*
X-26858Y320176D01*
Y315097D01*
X-29398Y312558D01*
X-39554D01*
X175544Y-43141D02*
Y-27906D01*
X167927Y-35524D01*
X178083D01*
X183162Y-43141D02*
X188240D01*
X185701D01*
Y-27906D01*
X183162Y-30446D01*
X195858Y-43141D02*
Y-40602D01*
X198397D01*
Y-43141D01*
X195858D01*
X208554Y-30446D02*
X211093Y-27906D01*
X216171D01*
X218710Y-30446D01*
Y-40602D01*
X216171Y-43141D01*
X211093D01*
X208554Y-40602D01*
Y-30446D01*
X223789D02*
X226328Y-27906D01*
X231406D01*
X233945Y-30446D01*
Y-40602D01*
X231406Y-43141D01*
X226328D01*
X223789Y-40602D01*
Y-30446D01*
M02*
