%FSLAX44Y44*%
%MOMM*%
G71*
G01*
G75*
G04 Layer_Color=8388736*
%ADD10R,0.6000X0.9000*%
%ADD11R,0.9000X0.6000*%
%ADD12R,1.3000X0.7000*%
%ADD13R,1.6800X1.5200*%
%ADD14O,0.3000X1.5000*%
%ADD15R,0.3000X1.5000*%
%ADD16R,1.5000X0.3000*%
%ADD17R,2.0000X1.2000*%
%ADD18R,5.6000X5.6000*%
%ADD19R,5.5000X2.0000*%
%ADD20C,1.0000*%
%ADD21C,0.2000*%
%ADD22C,1.5000*%
%ADD23O,0.7500X0.7000*%
%ADD24R,1.5000X1.5000*%
%ADD25C,2.0000*%
%ADD26C,0.7000*%
%ADD27R,0.2000X1.4000*%
%ADD28R,0.2000X1.4000*%
%ADD29R,1.0000X1.3000*%
%ADD30R,1.3000X1.0000*%
%ADD31R,1.7000X1.1000*%
%ADD32R,2.0800X1.9200*%
%ADD33O,0.7000X1.9000*%
%ADD34R,0.7000X1.9000*%
%ADD35R,1.9000X0.7000*%
%ADD36R,2.4000X1.6000*%
%ADD37R,6.0000X6.0000*%
%ADD38R,5.9000X2.4000*%
%ADD39C,1.9000*%
%ADD40O,1.1500X1.1000*%
%ADD41R,1.9000X1.9000*%
%ADD42C,2.4000*%
%ADD43C,0.9032*%
D29*
X137000Y197000D02*
D03*
X122000D02*
D03*
X156000Y348000D02*
D03*
X171000D02*
D03*
X156000Y363000D02*
D03*
X171000D02*
D03*
X129000Y369000D02*
D03*
X144000D02*
D03*
X119000Y369000D02*
D03*
X104000D02*
D03*
X266000Y308000D02*
D03*
X281000D02*
D03*
X118000Y166000D02*
D03*
X133000D02*
D03*
D30*
X201000Y282500D02*
D03*
Y267500D02*
D03*
X38000Y265000D02*
D03*
Y250000D02*
D03*
X201000Y241000D02*
D03*
Y256000D02*
D03*
X38000Y282000D02*
D03*
Y297000D02*
D03*
X300000Y308000D02*
D03*
Y293000D02*
D03*
X249000Y308000D02*
D03*
Y293000D02*
D03*
X396000Y474000D02*
D03*
Y459000D02*
D03*
X350000Y474000D02*
D03*
Y459000D02*
D03*
X82000Y474000D02*
D03*
Y459000D02*
D03*
X31000Y474000D02*
D03*
Y459000D02*
D03*
X239000Y273000D02*
D03*
Y258000D02*
D03*
D31*
X15000Y280000D02*
D03*
Y299000D02*
D03*
X336000Y253000D02*
D03*
Y234000D02*
D03*
X383000Y355000D02*
D03*
Y374000D02*
D03*
X340000Y311000D02*
D03*
Y292000D02*
D03*
X239000Y224000D02*
D03*
Y243000D02*
D03*
X396000Y512000D02*
D03*
Y493000D02*
D03*
X350000Y511000D02*
D03*
Y492000D02*
D03*
X82000Y511000D02*
D03*
Y492000D02*
D03*
X31000Y511000D02*
D03*
Y492000D02*
D03*
D32*
X383000Y257000D02*
D03*
Y224000D02*
D03*
X279000Y257000D02*
D03*
Y224000D02*
D03*
D33*
X82000Y217000D02*
D03*
D34*
X87000D02*
D03*
X92000D02*
D03*
X97000D02*
D03*
X102000D02*
D03*
X107000D02*
D03*
X112000D02*
D03*
X117000D02*
D03*
X122000D02*
D03*
X127000D02*
D03*
X132000D02*
D03*
X137000D02*
D03*
X142000D02*
D03*
X147000D02*
D03*
X152000D02*
D03*
X157000D02*
D03*
Y332000D02*
D03*
X152000D02*
D03*
X147000D02*
D03*
X142000D02*
D03*
X137000D02*
D03*
X132000D02*
D03*
X127000D02*
D03*
X122000D02*
D03*
X117000D02*
D03*
X112000D02*
D03*
X107000D02*
D03*
X102000D02*
D03*
X97000D02*
D03*
X92000D02*
D03*
X87000D02*
D03*
X82000D02*
D03*
D35*
X177000Y237000D02*
D03*
Y242000D02*
D03*
Y247000D02*
D03*
Y252000D02*
D03*
Y257000D02*
D03*
Y262000D02*
D03*
Y267000D02*
D03*
Y272000D02*
D03*
Y277000D02*
D03*
Y282000D02*
D03*
Y287000D02*
D03*
Y292000D02*
D03*
Y297000D02*
D03*
Y302000D02*
D03*
Y307000D02*
D03*
Y312000D02*
D03*
X62000D02*
D03*
Y307000D02*
D03*
Y302000D02*
D03*
Y297000D02*
D03*
Y292000D02*
D03*
Y287000D02*
D03*
Y282000D02*
D03*
Y277000D02*
D03*
Y272000D02*
D03*
Y267000D02*
D03*
Y262000D02*
D03*
Y257000D02*
D03*
Y252000D02*
D03*
Y247000D02*
D03*
Y242000D02*
D03*
Y237000D02*
D03*
D36*
X345000Y386000D02*
D03*
Y342000D02*
D03*
D37*
X273000Y364000D02*
D03*
D38*
X172000Y400000D02*
D03*
X77000D02*
D03*
D39*
X53500Y115000D02*
D03*
X91000Y90000D02*
D03*
X103500Y115000D02*
D03*
X66000Y90000D02*
D03*
X116000D02*
D03*
X78500Y115000D02*
D03*
X349500Y154000D02*
D03*
X243500D02*
D03*
D40*
X135000Y26000D02*
D03*
X33000D02*
D03*
D41*
X384500Y104000D02*
D03*
X278500D02*
D03*
D42*
X166000Y491000D02*
D03*
X266000D02*
D03*
X216000D02*
D03*
D43*
X366000Y387000D02*
D03*
X218000Y249000D02*
D03*
Y263000D02*
D03*
Y224000D02*
D03*
X268000Y293000D02*
D03*
X322000D02*
D03*
X284000D02*
D03*
X15000Y242000D02*
D03*
X51000Y378601D02*
D03*
X15000Y316000D02*
D03*
X55000Y518000D02*
D03*
X112000D02*
D03*
X368000D02*
D03*
X315000Y517000D02*
D03*
X166000Y516000D02*
D03*
X146000Y247000D02*
D03*
X155000Y238000D02*
D03*
X367000Y374000D02*
D03*
X49000Y197000D02*
D03*
X243500Y135000D02*
D03*
X244000Y118000D02*
D03*
Y101000D02*
D03*
X349500Y100000D02*
D03*
Y119000D02*
D03*
Y136000D02*
D03*
X103500Y197500D02*
D03*
X127000Y262000D02*
D03*
X125000Y150000D02*
D03*
M02*
