%FSLAX44Y44*%
%MOMM*%
G71*
G01*
G75*
G04 Layer_Physical_Order=1*
G04 Layer_Color=255*
%ADD10R,0.6000X2.0000*%
%ADD11O,0.6000X2.0000*%
%ADD12R,1.4500X1.8000*%
%ADD13R,0.6000X1.0000*%
%ADD14R,1.5000X2.0000*%
%ADD15R,1.4000X1.0000*%
%ADD16R,1.0000X0.6000*%
%ADD17R,1.5200X1.6800*%
%ADD18R,2.1590X2.7430*%
%ADD19C,1.0000*%
%ADD20C,0.3000*%
%ADD21C,0.2580*%
%ADD22R,3.8000X2.0000*%
%ADD23C,2.0000*%
%ADD24C,1.1000*%
%ADD25C,1.7000*%
%ADD26C,4.0000*%
G04:AMPARAMS|DCode=27|XSize=4mm|YSize=1.8mm|CornerRadius=0.45mm|HoleSize=0mm|Usage=FLASHONLY|Rotation=0.000|XOffset=0mm|YOffset=0mm|HoleType=Round|Shape=RoundedRectangle|*
%AMROUNDEDRECTD27*
21,1,4.0000,0.9000,0,0,0.0*
21,1,3.1000,1.8000,0,0,0.0*
1,1,0.9000,1.5500,-0.4500*
1,1,0.9000,-1.5500,-0.4500*
1,1,0.9000,-1.5500,0.4500*
1,1,0.9000,1.5500,0.4500*
%
%ADD27ROUNDEDRECTD27*%
G04:AMPARAMS|DCode=28|XSize=4mm|YSize=1.8mm|CornerRadius=0.45mm|HoleSize=0mm|Usage=FLASHONLY|Rotation=270.000|XOffset=0mm|YOffset=0mm|HoleType=Round|Shape=RoundedRectangle|*
%AMROUNDEDRECTD28*
21,1,4.0000,0.9000,0,0,270.0*
21,1,3.1000,1.8000,0,0,270.0*
1,1,0.9000,-0.4500,-1.5500*
1,1,0.9000,-0.4500,1.5500*
1,1,0.9000,0.4500,1.5500*
1,1,0.9000,0.4500,-1.5500*
%
%ADD28ROUNDEDRECTD28*%
G04:AMPARAMS|DCode=29|XSize=4.8mm|YSize=2mm|CornerRadius=0.5mm|HoleSize=0mm|Usage=FLASHONLY|Rotation=270.000|XOffset=0mm|YOffset=0mm|HoleType=Round|Shape=RoundedRectangle|*
%AMROUNDEDRECTD29*
21,1,4.8000,1.0000,0,0,270.0*
21,1,3.8000,2.0000,0,0,270.0*
1,1,1.0000,-0.5000,-1.9000*
1,1,1.0000,-0.5000,1.9000*
1,1,1.0000,0.5000,1.9000*
1,1,1.0000,0.5000,-1.9000*
%
%ADD29ROUNDEDRECTD29*%
%ADD30C,1.5240*%
%ADD31C,1.9000*%
%ADD32C,1.2700*%
D10*
X412000Y582000D02*
D03*
X399300D02*
D03*
X386600D02*
D03*
X373900D02*
D03*
X361200D02*
D03*
X348500D02*
D03*
X323100D02*
D03*
X335800D02*
D03*
X310400D02*
D03*
X297700D02*
D03*
X285000D02*
D03*
X424700D02*
D03*
X437400D02*
D03*
X450100D02*
D03*
Y488000D02*
D03*
X437400D02*
D03*
X424700D02*
D03*
X297700D02*
D03*
X310400D02*
D03*
X335800D02*
D03*
X323100D02*
D03*
X348500D02*
D03*
X361200D02*
D03*
X373900D02*
D03*
X386600D02*
D03*
X399300D02*
D03*
X412000D02*
D03*
D11*
X285000D02*
D03*
D12*
X160000Y230000D02*
D03*
X189500D02*
D03*
X270000Y40000D02*
D03*
X240500D02*
D03*
D13*
X289000D02*
D03*
X304000D02*
D03*
X400000Y610000D02*
D03*
X385000Y610000D02*
D03*
X300000Y610000D02*
D03*
X285000Y610000D02*
D03*
X470000Y610000D02*
D03*
X485000D02*
D03*
X570000Y330000D02*
D03*
X555000Y330000D02*
D03*
X300000Y410000D02*
D03*
X315000D02*
D03*
X450000Y460000D02*
D03*
X435000D02*
D03*
X570000Y400000D02*
D03*
X555000Y400000D02*
D03*
X120000Y700000D02*
D03*
X105000Y700000D02*
D03*
X276000Y224000D02*
D03*
X291000D02*
D03*
D14*
X247000Y247000D02*
D03*
X293000D02*
D03*
X270000D02*
D03*
D15*
X162000Y579500D02*
D03*
X140000Y570000D02*
D03*
X162000Y560500D02*
D03*
X112000Y649500D02*
D03*
X90000Y640000D02*
D03*
X112000Y630500D02*
D03*
D16*
X190000Y580000D02*
D03*
X190000Y565000D02*
D03*
X270000Y450000D02*
D03*
X270000Y465000D02*
D03*
X590000Y320000D02*
D03*
Y335000D02*
D03*
X270000Y420000D02*
D03*
X270000Y435000D02*
D03*
X590000Y390000D02*
D03*
X590000Y405000D02*
D03*
D17*
X55500Y550000D02*
D03*
X90000D02*
D03*
D18*
X102100Y140000D02*
D03*
X57900D02*
D03*
D19*
X580000Y675000D02*
X615000Y640000D01*
X580000Y675000D02*
Y710000D01*
X232500Y157500D02*
X240000Y165000D01*
X157500Y157500D02*
X232500D01*
X152000Y132000D02*
X223000D01*
X240000Y115000D01*
Y40500D02*
Y115000D01*
X241000Y114000D02*
X288000D01*
X320000Y146000D01*
Y160000D01*
X247000Y247000D02*
X251000Y243000D01*
Y176000D02*
Y243000D01*
X240000Y165000D02*
X251000Y176000D01*
X276000Y198000D02*
X314000Y160000D01*
X276000Y198000D02*
Y224000D01*
X291000Y209506D02*
X340000Y160506D01*
X291000Y209506D02*
Y224000D01*
X340000Y160000D02*
Y160506D01*
X120000Y230000D02*
X160000D01*
X189500D02*
X190000D01*
X207000Y247000D01*
X247000D01*
X164000Y290000D02*
X207000Y247000D01*
X68000Y290000D02*
X164000D01*
X34000Y324000D02*
X68000Y290000D01*
X34000Y324000D02*
Y496000D01*
Y528500D01*
X55500Y550000D01*
X150000Y150000D02*
X157500Y157500D01*
X293000Y247000D02*
X315000Y269000D01*
X58000Y140100D02*
Y230000D01*
X57900Y140000D02*
X58000Y140100D01*
X240000Y40500D02*
X240500Y40000D01*
X285000Y582000D02*
Y610000D01*
X450000Y460000D02*
X460000D01*
X530000Y530000D01*
X560000D01*
X590000Y560000D01*
X57900Y112100D02*
Y140000D01*
X180000Y400000D02*
X250000D01*
X270000Y420000D01*
X90000Y640000D02*
Y685000D01*
X105000Y700000D01*
Y705000D01*
X55500Y550000D02*
Y605500D01*
X90000Y640000D01*
X112000Y612000D02*
Y630500D01*
X100000Y600000D02*
X112000Y612000D01*
X90000Y600000D02*
X100000D01*
X105000Y705000D02*
X180000Y780000D01*
X315000Y269000D02*
Y380000D01*
Y410000D01*
X234500Y610000D02*
X285000D01*
X437400Y488000D02*
Y520000D01*
X348500Y551500D02*
Y582000D01*
X102100Y140000D02*
X130000D01*
X140000Y150000D01*
X150000D01*
X57900Y112100D02*
X70000Y100000D01*
X120000D01*
X150000Y130000D01*
X270000Y230000D02*
Y247000D01*
Y230000D02*
X276000Y224000D01*
X314000Y160000D02*
X320000D01*
X293000Y226000D02*
Y247000D01*
X291000Y224000D02*
X293000Y226000D01*
X340000Y131000D02*
Y160000D01*
Y131000D02*
X356000Y115000D01*
X438100D01*
X504000Y780000D02*
X554500Y729500D01*
Y710000D02*
Y729500D01*
X444500Y710000D02*
Y742500D01*
X416000Y771000D02*
X444500Y742500D01*
X416000Y771000D02*
Y780000D01*
X180000D02*
X416000D01*
X504000D01*
X110000Y430000D02*
X175500D01*
X180000Y425500D01*
X180500D01*
X183000Y423000D01*
D20*
X340000Y99000D02*
X356000Y115000D01*
X340000Y70000D02*
Y99000D01*
X270000Y40000D02*
X289000D01*
X304000D02*
X310000D01*
X340000Y70000D01*
X570000Y330000D02*
X572000D01*
X586000Y344000D01*
X590500D01*
X606500Y360000D01*
D21*
X400000Y610000D02*
Y620000D01*
X380000Y640000D02*
X400000Y620000D01*
X297700Y582000D02*
Y607700D01*
X300000Y610000D01*
X400000Y582700D02*
Y610000D01*
X399300Y582000D02*
X400000Y582700D01*
X106000Y496000D02*
Y534000D01*
X90000Y550000D02*
X106000Y534000D01*
X90000Y550000D02*
X110000Y570000D01*
X140000D01*
X162000Y579500D02*
X189500D01*
X190000Y580000D01*
X160000Y610000D02*
X190000Y580000D01*
X310000Y582400D02*
Y650000D01*
X500000Y560000D02*
X539000D01*
X470000Y530000D02*
X500000Y560000D01*
X470000Y490000D02*
Y530000D01*
X468000Y488000D02*
X470000Y490000D01*
X450100Y488000D02*
X468000D01*
X386600Y582000D02*
Y608400D01*
X385000Y610000D02*
X386600Y608400D01*
X590000Y376500D02*
Y390000D01*
Y376500D02*
X606500Y360000D01*
X581000Y360000D02*
Y396000D01*
X590000Y405000D01*
X570000Y400000D02*
Y420000D01*
X590000Y440000D01*
X423710Y582000D02*
X424700D01*
X555500Y360000D02*
Y399500D01*
X555000Y400000D02*
X555500Y399500D01*
X606500Y290000D02*
Y303500D01*
X590000Y320000D02*
X606500Y303500D01*
X581000Y290000D02*
Y326000D01*
X590000Y335000D01*
X555000Y290500D02*
Y330000D01*
Y290500D02*
X555500Y290000D01*
X510000Y330000D02*
X555000D01*
X386600Y453400D02*
X510000Y330000D01*
X386600Y453400D02*
Y488000D01*
X450100Y582000D02*
X457000D01*
X485000Y610000D01*
X490000Y630000D02*
Y640000D01*
X470000Y610000D02*
X490000Y630000D01*
X437400Y582000D02*
Y637400D01*
X162000Y560500D02*
X185500D01*
X190000Y565000D01*
X285000Y610000D02*
X285000Y610000D01*
X435000Y460000D02*
Y485600D01*
X437400Y488000D01*
X180500Y649500D02*
X210000Y620000D01*
X361200Y458800D02*
Y488000D01*
Y458800D02*
X500000Y320000D01*
X373900Y543900D02*
Y582000D01*
X300000Y610000D02*
Y640000D01*
X323100Y582000D02*
Y656900D01*
X437400Y637400D02*
X450000Y650000D01*
X510000Y590000D02*
X610000D01*
X424700Y560000D02*
Y582000D01*
Y560000D02*
X434700Y550000D01*
X470000D01*
X510000Y590000D01*
X270000Y465000D02*
X285000D01*
X270000Y435000D02*
Y450000D01*
X270000Y435000D02*
X285000D01*
X300000Y420000D01*
X285000Y465000D02*
Y488000D01*
X330000Y241500D02*
X428250Y143250D01*
X285000Y465000D02*
X330000Y420000D01*
Y241500D02*
Y420000D01*
X323100Y436900D02*
Y488000D01*
X335800Y444200D02*
Y488000D01*
X490000Y280000D02*
X530000Y240000D01*
X500000Y295500D02*
Y320000D01*
Y295500D02*
X555500Y240000D01*
X323100Y436900D02*
X460000Y300000D01*
Y170000D02*
Y300000D01*
X335800Y444200D02*
X479050Y300950D01*
X348500Y451500D02*
Y488000D01*
Y451500D02*
X490000Y310000D01*
Y280000D02*
Y310000D01*
X424700Y445300D02*
Y488000D01*
Y445300D02*
X440000Y430000D01*
X412000Y448000D02*
Y488000D01*
X399300Y450700D02*
Y488000D01*
Y450700D02*
X450000Y400000D01*
X555000D01*
X412000Y448000D02*
X440000Y420000D01*
X480000D01*
X500000Y440000D01*
X539000D01*
X112000Y649500D02*
X180500D01*
X112000D02*
Y662000D01*
X120000Y670000D01*
Y700000D01*
X373900Y463900D02*
Y488000D01*
X199000Y710000D02*
X239000Y670000D01*
X290000D01*
X310000Y650000D01*
X309000Y671000D02*
Y710000D01*
Y671000D02*
X323100Y656900D01*
X412000Y582000D02*
Y632000D01*
X450000Y670000D01*
X489000D01*
X529000Y710000D01*
X550000Y600000D02*
X610000D01*
X500000Y650000D02*
X550000Y600000D01*
X450000Y650000D02*
X500000D01*
X300000Y410000D02*
Y420000D01*
X335800Y626800D02*
X419000Y710000D01*
X335800Y582000D02*
Y626800D01*
X310000Y488400D02*
Y500000D01*
X360000Y530000D02*
X373900Y543900D01*
X180000Y451000D02*
X211000D01*
X270000Y510000D01*
X300000D01*
X310000Y500000D01*
X190000Y563523D02*
Y565000D01*
X223523Y530000D02*
X360000D01*
X190000Y563523D02*
X223523Y530000D01*
X210000Y550000D02*
Y620000D01*
Y550000D02*
X225420Y534580D01*
X350000D01*
X361200Y545780D01*
Y582000D01*
X610000Y600000D02*
X650000Y560000D01*
X590000Y335000D02*
X635000D01*
X650000Y350000D01*
Y560000D01*
X610000Y590000D02*
X640000Y560000D01*
X590000Y405000D02*
X615000D01*
X640000Y430000D01*
Y560000D01*
X440000Y430000D02*
X469000D01*
X539000Y500000D01*
X479050Y143250D02*
Y300950D01*
D22*
X270000Y310000D02*
D03*
D23*
X106000Y324000D02*
D03*
Y496000D02*
D03*
X34000D02*
D03*
Y324000D02*
D03*
X106000Y399000D02*
D03*
X529000Y710000D02*
D03*
X554500D02*
D03*
X580000D02*
D03*
X470000D02*
D03*
X444500D02*
D03*
X419000D02*
D03*
X539000Y440000D02*
D03*
X564500D02*
D03*
X590000D02*
D03*
Y500000D02*
D03*
X564500D02*
D03*
X539000D02*
D03*
Y560000D02*
D03*
X564500D02*
D03*
X590000D02*
D03*
X309000Y710000D02*
D03*
X334500D02*
D03*
X360000D02*
D03*
X250000D02*
D03*
X224500D02*
D03*
X199000D02*
D03*
X180000Y451000D02*
D03*
Y425500D02*
D03*
Y400000D02*
D03*
X581000Y240000D02*
D03*
X530000D02*
D03*
X555500D02*
D03*
X581000Y290000D02*
D03*
X606500D02*
D03*
X555500D02*
D03*
X530000D02*
D03*
Y360000D02*
D03*
X555500D02*
D03*
X606500D02*
D03*
X581000D02*
D03*
D24*
X320000Y160000D02*
D03*
X340000D02*
D03*
X150000Y150000D02*
D03*
Y130000D02*
D03*
D25*
X240000Y115000D02*
D03*
Y165000D02*
D03*
X565000Y640000D02*
D03*
X615000D02*
D03*
D26*
X50000Y770000D02*
D03*
Y50000D02*
D03*
X670000D02*
D03*
Y770000D02*
D03*
D27*
X90000Y182000D02*
D03*
D28*
X58000Y230000D02*
D03*
D29*
X120000D02*
D03*
D30*
X510800Y54350D02*
D03*
X409200D02*
D03*
D31*
X428250Y143250D02*
D03*
X440950Y117850D02*
D03*
X491750D02*
D03*
X466350D02*
D03*
X453650Y143250D02*
D03*
X479050D02*
D03*
D32*
X160000Y610000D02*
D03*
X380000Y640000D02*
D03*
X490000D02*
D03*
X300000D02*
D03*
X460000Y170000D02*
D03*
X90000Y600000D02*
D03*
X110000Y430000D02*
D03*
X373900Y463900D02*
D03*
X315000Y380000D02*
D03*
X234500Y610000D02*
D03*
X437400Y520000D02*
D03*
X348500Y551500D02*
D03*
M02*
