M48
;Layer_Color=9474304
;FILE_FORMAT=4:4
METRIC,LZ
T10F00S00C5.0800
%
G90
G05
T10
G00X00725048Y-00024893
M15
G01X00729895Y-00023393
G01X00734347Y-0002096
G01X00738227Y-0001769
G01X00741379Y-00013715
G01X00743678Y-00009192
G01X00745033Y-00004303
G01X007454Y0
G01X007454Y0082
G01X00744893Y00825048
G01X00743393Y00829895
G01X0074096Y00834347
G01X0073769Y00838227
G01X00733715Y00841379
G01X00729192Y00843678
G01X00724303Y00845033
G01X0072Y008454
G01X0Y008454
G01X-00005048Y00844893
G01X-00009895Y00843393
G01X-00014347Y0084096
G01X-00018227Y0083769
G01X-00021379Y00833715
G01X-00023678Y00829192
G01X-00025033Y00824303
G01X-000254Y0082
G01X-000254Y0
G01X-00024893Y-00005048
G01X-00023393Y-00009895
G01X-0002096Y-00014347
G01X-0001769Y-00018227
G01X-00013715Y-00021379
G01X-00009192Y-00023678
G01X-00004303Y-00025033
G01X0Y-000254
G01X0072Y-000254
G01X00725048Y-00024893
M16
M17
M30
