M48
;Layer_Color=9474304
;FILE_FORMAT=4:4
METRIC,LZ
;TYPE=PLATED
T1F00S00C0.7112
T3F00S00C1.0000
T5F00S00C1.1000
T6F00S00C1.3000
;TYPE=NON_PLATED
T7F00S00C1.1000
T8F00S00C3.2500
T9F00S00C4.0000
%
T01
X0046Y0017
X00315Y0038
X0011Y0043
X0009Y006
X0016Y0061
X002345
X003Y0064
X0038
X003485Y005515
X003739Y004639
X004374Y0052
X0049Y0064
T03
X0015Y0013
Y0015
X0024Y001575
Y001225
X0032Y0016
X0034
X005725Y0064
X006075
T05
X0044095Y0011785
X0046635
X0047905Y0014325
X0045365
X0042825
X0053Y0024
X005555
X00581
Y0029
X005555
X0053
Y0036
X005555
X00581
X006065Y0036
Y0029
X0059Y0044
X005645
X00539
X0018Y00451
Y004255
Y004
X00199Y0071
X002245
X0025
X00309
X003345
X0036
X00419
X004445
X0047
X00529
X005545
X0058
X0059Y0056
X005645
X00539
Y005
X005645
X0059
T06
X00034Y00324
X00106
Y00399
Y00496
X00034
T07
X0049175Y0011785
T08
X004092Y0005435
X005108
T09
X0005Y0005
X0067
X0005Y0077
X0067
M30
