%FSLAX44Y44*%
%MOMM*%
G71*
G01*
G75*
G04 Layer_Color=16711935*
%ADD10R,0.6000X2.0000*%
%ADD11O,0.6000X2.0000*%
%ADD12R,1.4500X1.8000*%
%ADD13R,0.6000X1.0000*%
%ADD14R,1.5000X2.0000*%
%ADD15R,1.4000X1.0000*%
%ADD16R,1.0000X0.6000*%
%ADD17R,1.5200X1.6800*%
%ADD18R,2.1590X2.7430*%
%ADD19C,1.0000*%
%ADD20C,0.3000*%
%ADD21C,0.2580*%
%ADD22R,3.8000X2.0000*%
%ADD23C,2.0000*%
%ADD24C,1.1000*%
%ADD25C,1.7000*%
%ADD26C,4.0000*%
G04:AMPARAMS|DCode=27|XSize=4mm|YSize=1.8mm|CornerRadius=0.45mm|HoleSize=0mm|Usage=FLASHONLY|Rotation=0.000|XOffset=0mm|YOffset=0mm|HoleType=Round|Shape=RoundedRectangle|*
%AMROUNDEDRECTD27*
21,1,4.0000,0.9000,0,0,0.0*
21,1,3.1000,1.8000,0,0,0.0*
1,1,0.9000,1.5500,-0.4500*
1,1,0.9000,-1.5500,-0.4500*
1,1,0.9000,-1.5500,0.4500*
1,1,0.9000,1.5500,0.4500*
%
%ADD27ROUNDEDRECTD27*%
G04:AMPARAMS|DCode=28|XSize=4mm|YSize=1.8mm|CornerRadius=0.45mm|HoleSize=0mm|Usage=FLASHONLY|Rotation=270.000|XOffset=0mm|YOffset=0mm|HoleType=Round|Shape=RoundedRectangle|*
%AMROUNDEDRECTD28*
21,1,4.0000,0.9000,0,0,270.0*
21,1,3.1000,1.8000,0,0,270.0*
1,1,0.9000,-0.4500,-1.5500*
1,1,0.9000,-0.4500,1.5500*
1,1,0.9000,0.4500,1.5500*
1,1,0.9000,0.4500,-1.5500*
%
%ADD28ROUNDEDRECTD28*%
G04:AMPARAMS|DCode=29|XSize=4.8mm|YSize=2mm|CornerRadius=0.5mm|HoleSize=0mm|Usage=FLASHONLY|Rotation=270.000|XOffset=0mm|YOffset=0mm|HoleType=Round|Shape=RoundedRectangle|*
%AMROUNDEDRECTD29*
21,1,4.8000,1.0000,0,0,270.0*
21,1,3.8000,2.0000,0,0,270.0*
1,1,1.0000,-0.5000,-1.9000*
1,1,1.0000,-0.5000,1.9000*
1,1,1.0000,0.5000,1.9000*
1,1,1.0000,0.5000,-1.9000*
%
%ADD29ROUNDEDRECTD29*%
%ADD30C,1.5240*%
%ADD31C,1.9000*%
%ADD32C,1.2700*%
%ADD33C,0.2000*%
%ADD34C,0.2540*%
%ADD35C,0.1000*%
%ADD36R,0.5000X1.0000*%
%ADD37R,1.0000X0.5000*%
%ADD38R,2.0000X1.1000*%
%ADD39R,1.1000X2.0000*%
%ADD40R,1.0000X2.4000*%
%ADD41O,1.0000X2.4000*%
%ADD42R,1.8500X2.2000*%
%ADD43R,1.0000X1.4000*%
%ADD44R,1.9000X2.4000*%
%ADD45R,1.8000X1.4000*%
%ADD46R,1.4000X1.0000*%
%ADD47R,1.9200X2.0800*%
%ADD48R,2.5590X3.1430*%
%ADD49R,4.2000X2.4000*%
%ADD50C,2.4000*%
%ADD51C,1.5000*%
%ADD52C,2.1000*%
%ADD53C,6.0000*%
G04:AMPARAMS|DCode=54|XSize=4.4mm|YSize=2.2mm|CornerRadius=0.65mm|HoleSize=0mm|Usage=FLASHONLY|Rotation=0.000|XOffset=0mm|YOffset=0mm|HoleType=Round|Shape=RoundedRectangle|*
%AMROUNDEDRECTD54*
21,1,4.4000,0.9000,0,0,0.0*
21,1,3.1000,2.2000,0,0,0.0*
1,1,1.3000,1.5500,-0.4500*
1,1,1.3000,-1.5500,-0.4500*
1,1,1.3000,-1.5500,0.4500*
1,1,1.3000,1.5500,0.4500*
%
%ADD54ROUNDEDRECTD54*%
G04:AMPARAMS|DCode=55|XSize=4.4mm|YSize=2.2mm|CornerRadius=0.65mm|HoleSize=0mm|Usage=FLASHONLY|Rotation=270.000|XOffset=0mm|YOffset=0mm|HoleType=Round|Shape=RoundedRectangle|*
%AMROUNDEDRECTD55*
21,1,4.4000,0.9000,0,0,270.0*
21,1,3.1000,2.2000,0,0,270.0*
1,1,1.3000,-0.4500,-1.5500*
1,1,1.3000,-0.4500,1.5500*
1,1,1.3000,0.4500,1.5500*
1,1,1.3000,0.4500,-1.5500*
%
%ADD55ROUNDEDRECTD55*%
G04:AMPARAMS|DCode=56|XSize=5.2mm|YSize=2.4mm|CornerRadius=0.7mm|HoleSize=0mm|Usage=FLASHONLY|Rotation=270.000|XOffset=0mm|YOffset=0mm|HoleType=Round|Shape=RoundedRectangle|*
%AMROUNDEDRECTD56*
21,1,5.2000,1.0000,0,0,270.0*
21,1,3.8000,2.4000,0,0,270.0*
1,1,1.4000,-0.5000,-1.9000*
1,1,1.4000,-0.5000,1.9000*
1,1,1.4000,0.5000,1.9000*
1,1,1.4000,0.5000,-1.9000*
%
%ADD56ROUNDEDRECTD56*%
%ADD57C,1.9240*%
%ADD58C,2.3000*%
%ADD59C,1.4732*%
D50*
X106000Y324000D02*
D03*
Y496000D02*
D03*
X34000D02*
D03*
Y324000D02*
D03*
X106000Y399000D02*
D03*
X529000Y710000D02*
D03*
X554500D02*
D03*
X580000D02*
D03*
X470000D02*
D03*
X444500D02*
D03*
X419000D02*
D03*
X539000Y440000D02*
D03*
X564500D02*
D03*
X590000D02*
D03*
Y500000D02*
D03*
X564500D02*
D03*
X539000D02*
D03*
Y560000D02*
D03*
X564500D02*
D03*
X590000D02*
D03*
X309000Y710000D02*
D03*
X334500D02*
D03*
X360000D02*
D03*
X250000D02*
D03*
X224500D02*
D03*
X199000D02*
D03*
X180000Y451000D02*
D03*
Y425500D02*
D03*
Y400000D02*
D03*
X581000Y240000D02*
D03*
X530000D02*
D03*
X555500D02*
D03*
X581000Y290000D02*
D03*
X606500D02*
D03*
X555500D02*
D03*
X530000D02*
D03*
Y360000D02*
D03*
X555500D02*
D03*
X606500D02*
D03*
X581000D02*
D03*
D51*
X320000Y160000D02*
D03*
X340000D02*
D03*
X150000Y150000D02*
D03*
Y130000D02*
D03*
D52*
X240000Y115000D02*
D03*
Y165000D02*
D03*
X565000Y640000D02*
D03*
X615000D02*
D03*
D53*
X50000Y770000D02*
D03*
Y50000D02*
D03*
X670000D02*
D03*
Y770000D02*
D03*
D54*
X90000Y182000D02*
D03*
D55*
X58000Y230000D02*
D03*
D56*
X120000D02*
D03*
D57*
X510800Y54350D02*
D03*
X409200D02*
D03*
D58*
X428250Y143250D02*
D03*
X440950Y117850D02*
D03*
X491750D02*
D03*
X466350D02*
D03*
X453650Y143250D02*
D03*
X479050D02*
D03*
D59*
X160000Y610000D02*
D03*
X380000Y640000D02*
D03*
X490000D02*
D03*
X300000D02*
D03*
X460000Y170000D02*
D03*
X90000Y600000D02*
D03*
X110000Y430000D02*
D03*
X373900Y463900D02*
D03*
X315000Y380000D02*
D03*
X234500Y610000D02*
D03*
X437400Y520000D02*
D03*
X348500Y551500D02*
D03*
M02*
