%FSLAX44Y44*%
%MOMM*%
G71*
G01*
G75*
G04 Layer_Color=65535*
%ADD10R,0.6000X2.0000*%
%ADD11O,0.6000X2.0000*%
%ADD12R,1.4500X1.8000*%
%ADD13R,0.6000X1.0000*%
%ADD14R,1.5000X2.0000*%
%ADD15R,1.4000X1.0000*%
%ADD16R,1.0000X0.6000*%
%ADD17R,1.5200X1.6800*%
%ADD18R,2.1590X2.7430*%
%ADD19C,1.0000*%
%ADD20C,0.3000*%
%ADD21C,0.2580*%
%ADD22R,3.8000X2.0000*%
%ADD23C,2.0000*%
%ADD24C,1.1000*%
%ADD25C,1.7000*%
%ADD26C,4.0000*%
G04:AMPARAMS|DCode=27|XSize=4mm|YSize=1.8mm|CornerRadius=0.45mm|HoleSize=0mm|Usage=FLASHONLY|Rotation=0.000|XOffset=0mm|YOffset=0mm|HoleType=Round|Shape=RoundedRectangle|*
%AMROUNDEDRECTD27*
21,1,4.0000,0.9000,0,0,0.0*
21,1,3.1000,1.8000,0,0,0.0*
1,1,0.9000,1.5500,-0.4500*
1,1,0.9000,-1.5500,-0.4500*
1,1,0.9000,-1.5500,0.4500*
1,1,0.9000,1.5500,0.4500*
%
%ADD27ROUNDEDRECTD27*%
G04:AMPARAMS|DCode=28|XSize=4mm|YSize=1.8mm|CornerRadius=0.45mm|HoleSize=0mm|Usage=FLASHONLY|Rotation=270.000|XOffset=0mm|YOffset=0mm|HoleType=Round|Shape=RoundedRectangle|*
%AMROUNDEDRECTD28*
21,1,4.0000,0.9000,0,0,270.0*
21,1,3.1000,1.8000,0,0,270.0*
1,1,0.9000,-0.4500,-1.5500*
1,1,0.9000,-0.4500,1.5500*
1,1,0.9000,0.4500,1.5500*
1,1,0.9000,0.4500,-1.5500*
%
%ADD28ROUNDEDRECTD28*%
G04:AMPARAMS|DCode=29|XSize=4.8mm|YSize=2mm|CornerRadius=0.5mm|HoleSize=0mm|Usage=FLASHONLY|Rotation=270.000|XOffset=0mm|YOffset=0mm|HoleType=Round|Shape=RoundedRectangle|*
%AMROUNDEDRECTD29*
21,1,4.8000,1.0000,0,0,270.0*
21,1,3.8000,2.0000,0,0,270.0*
1,1,1.0000,-0.5000,-1.9000*
1,1,1.0000,-0.5000,1.9000*
1,1,1.0000,0.5000,1.9000*
1,1,1.0000,0.5000,-1.9000*
%
%ADD29ROUNDEDRECTD29*%
%ADD30C,1.5240*%
%ADD31C,1.9000*%
%ADD32C,1.2700*%
%ADD33C,0.2000*%
%ADD34C,0.2540*%
%ADD35C,0.1000*%
%ADD36R,0.5000X1.0000*%
%ADD37R,1.0000X0.5000*%
%ADD38R,2.0000X1.1000*%
%ADD39R,1.1000X2.0000*%
G36*
X385125Y323125D02*
Y324125D01*
X377375Y331875D01*
X395125Y333125D01*
X385125Y323125D01*
D02*
G37*
G36*
X438500Y332000D02*
X430750Y324250D01*
Y323250D01*
X420750Y333250D01*
X438500Y332000D01*
D02*
G37*
D33*
X355000Y160000D02*
G03*
X355000Y160000I-25000J0D01*
G01*
X175000Y140000D02*
G03*
X175000Y140000I-25000J0D01*
G01*
X290000D02*
G03*
X290000Y140000I-50000J0D01*
G01*
X640000Y640000D02*
G03*
X640000Y640000I-50000J0D01*
G01*
X20000Y510000D02*
X120000D01*
X20000Y310000D02*
Y510000D01*
Y310000D02*
X120000D01*
Y510000D01*
X600000Y695000D02*
Y725000D01*
X510000D02*
X600000D01*
X510000Y695000D02*
Y725000D01*
Y695000D02*
X600000D01*
X400000D02*
X490000D01*
X400000D02*
Y725000D01*
X490000D01*
Y695000D02*
Y725000D01*
X610000Y425000D02*
Y455000D01*
X520000D02*
X610000D01*
X520000Y425000D02*
Y455000D01*
Y425000D02*
X610000D01*
X520000Y485000D02*
X610000D01*
X520000D02*
Y515000D01*
X610000D01*
Y485000D02*
Y515000D01*
Y545000D02*
Y575000D01*
X520000D02*
X610000D01*
X520000Y545000D02*
Y575000D01*
Y545000D02*
X610000D01*
X380000Y695000D02*
Y725000D01*
X290000D02*
X380000D01*
X290000Y695000D02*
Y725000D01*
Y695000D02*
X380000D01*
X180000D02*
X270000D01*
X180000D02*
Y725000D01*
X270000D01*
Y695000D02*
Y725000D01*
X165000Y380000D02*
X195000D01*
Y470000D01*
X165000D02*
X195000D01*
X165000Y380000D02*
Y470000D01*
X510000Y225000D02*
Y255000D01*
Y225000D02*
X600000D01*
Y255000D01*
X510000D02*
X600000D01*
X510000Y275000D02*
X625000D01*
X510000D02*
Y305000D01*
X625000D01*
Y275000D02*
Y305000D01*
Y345000D02*
Y375000D01*
X510000D02*
X625000D01*
X510000Y345000D02*
Y375000D01*
Y345000D02*
X625000D01*
X275000Y575000D02*
X277000D01*
X275000Y495000D02*
Y575000D01*
X275500Y495000D02*
X277000D01*
X458500Y575000D02*
X460000D01*
X460500Y495000D02*
Y575000D01*
X458500Y495000D02*
X460500D01*
X235000Y265000D02*
Y305000D01*
X245000D01*
X305000Y265000D02*
Y305000D01*
X295000D02*
X305000D01*
X140000Y584600D02*
X149750D01*
X140000Y555400D02*
X149750D01*
X140000D02*
Y559500D01*
Y580500D02*
Y584600D01*
X90000Y654600D02*
X99750D01*
X90000Y625400D02*
X99750D01*
X90000D02*
Y629500D01*
Y650500D02*
Y654600D01*
X116000Y185000D02*
X128000D01*
Y200000D01*
X-17000Y185000D02*
X63250D01*
X-17000D02*
Y275000D01*
X128000D01*
Y260250D02*
Y275000D01*
X85080Y125522D02*
Y153970D01*
X255332Y436665D02*
X253999Y437997D01*
X251333D01*
X250000Y436665D01*
Y431333D01*
X251333Y430000D01*
X253999D01*
X255332Y431333D01*
X257997Y430000D02*
X260663D01*
X259330D01*
Y437997D01*
X257997Y436665D01*
X387442Y630742D02*
X386109Y632075D01*
X383443D01*
X382110Y630742D01*
Y625411D01*
X383443Y624078D01*
X386109D01*
X387442Y625411D01*
X395439Y624078D02*
X390107D01*
X395439Y629410D01*
Y630742D01*
X394106Y632075D01*
X391440D01*
X390107Y630742D01*
X445332Y446665D02*
X443999Y447997D01*
X441333D01*
X440000Y446665D01*
Y441333D01*
X441333Y440000D01*
X443999D01*
X445332Y441333D01*
X447997Y446665D02*
X449330Y447997D01*
X451996D01*
X453329Y446665D01*
Y445332D01*
X451996Y443999D01*
X450663D01*
X451996D01*
X453329Y442666D01*
Y441333D01*
X451996Y440000D01*
X449330D01*
X447997Y441333D01*
X287206Y630742D02*
X285873Y632075D01*
X283207D01*
X281874Y630742D01*
Y625411D01*
X283207Y624078D01*
X285873D01*
X287206Y625411D01*
X293870Y624078D02*
Y632075D01*
X289871Y628077D01*
X295203D01*
X645332Y676665D02*
X643999Y677997D01*
X641333D01*
X640000Y676665D01*
Y671333D01*
X641333Y670000D01*
X643999D01*
X645332Y671333D01*
X653329Y677997D02*
X647997D01*
Y673999D01*
X650663Y675332D01*
X651996D01*
X653329Y673999D01*
Y671333D01*
X651996Y670000D01*
X649330D01*
X647997Y671333D01*
X205332Y196665D02*
X203999Y197997D01*
X201333D01*
X200000Y196665D01*
Y191333D01*
X201333Y190000D01*
X203999D01*
X205332Y191333D01*
X213329Y197997D02*
X210663Y196665D01*
X207997Y193999D01*
Y191333D01*
X209330Y190000D01*
X211996D01*
X213329Y191333D01*
Y192666D01*
X211996Y193999D01*
X207997D01*
X155332Y176665D02*
X153999Y177997D01*
X151333D01*
X150000Y176665D01*
Y171333D01*
X151333Y170000D01*
X153999D01*
X155332Y171333D01*
X157997Y177997D02*
X163329D01*
Y176665D01*
X157997Y171333D01*
Y170000D01*
X341332Y197665D02*
X339999Y198997D01*
X337333D01*
X336000Y197665D01*
Y192333D01*
X337333Y191000D01*
X339999D01*
X341332Y192333D01*
X343997Y197665D02*
X345330Y198997D01*
X347996D01*
X349329Y197665D01*
Y196332D01*
X347996Y194999D01*
X349329Y193666D01*
Y192333D01*
X347996Y191000D01*
X345330D01*
X343997Y192333D01*
Y193666D01*
X345330Y194999D01*
X343997Y196332D01*
Y197665D01*
X345330Y194999D02*
X347996D01*
X308332Y224664D02*
X306999Y225997D01*
X304333D01*
X303000Y224664D01*
Y219333D01*
X304333Y218000D01*
X306999D01*
X308332Y219333D01*
X310997D02*
X312330Y218000D01*
X314996D01*
X316329Y219333D01*
Y224664D01*
X314996Y225997D01*
X312330D01*
X310997Y224664D01*
Y223332D01*
X312330Y221999D01*
X316329D01*
X30000Y567997D02*
Y560000D01*
X33999D01*
X35332Y561333D01*
Y566665D01*
X33999Y567997D01*
X30000D01*
X37997Y560000D02*
X40663D01*
X39330D01*
Y567997D01*
X37997Y566665D01*
X20000Y137997D02*
Y130000D01*
X23999D01*
X25332Y131333D01*
Y136664D01*
X23999Y137997D01*
X20000D01*
X33329Y130000D02*
X27997D01*
X33329Y135332D01*
Y136664D01*
X31996Y137997D01*
X29330D01*
X27997Y136664D01*
X210000Y47997D02*
Y40000D01*
X213999D01*
X215332Y41333D01*
Y46665D01*
X213999Y47997D01*
X210000D01*
X217997Y46665D02*
X219330Y47997D01*
X221996D01*
X223329Y46665D01*
Y45332D01*
X221996Y43999D01*
X220663D01*
X221996D01*
X223329Y42666D01*
Y41333D01*
X221996Y40000D01*
X219330D01*
X217997Y41333D01*
X175332Y257997D02*
X170000D01*
Y253999D01*
X172666D01*
X170000D01*
Y250000D01*
X177997D02*
X180663D01*
X179330D01*
Y257997D01*
X177997Y256665D01*
X150000Y487997D02*
X152666D01*
X151333D01*
Y480000D01*
X150000D01*
X152666D01*
X156664D02*
Y487997D01*
X160663D01*
X161996Y486665D01*
Y483999D01*
X160663Y482666D01*
X156664D01*
X159330D02*
X161996Y480000D01*
X177991Y486665D02*
X176658Y487997D01*
X173992D01*
X172659Y486665D01*
Y485332D01*
X173992Y483999D01*
X176658D01*
X177991Y482666D01*
Y481333D01*
X176658Y480000D01*
X173992D01*
X172659Y481333D01*
X184655Y480000D02*
X181990D01*
X180657Y481333D01*
Y483999D01*
X181990Y485332D01*
X184655D01*
X185988Y483999D01*
Y482666D01*
X180657D01*
X188654Y480000D02*
Y485332D01*
X192653D01*
X193986Y483999D01*
Y480000D01*
X196652D02*
X200650D01*
X201983Y481333D01*
X200650Y482666D01*
X197985D01*
X196652Y483999D01*
X197985Y485332D01*
X201983D01*
X205982Y480000D02*
X208648D01*
X209981Y481333D01*
Y483999D01*
X208648Y485332D01*
X205982D01*
X204649Y483999D01*
Y481333D01*
X205982Y480000D01*
X212647Y485332D02*
Y480000D01*
Y482666D01*
X213979Y483999D01*
X215312Y485332D01*
X216645D01*
X210000Y740000D02*
Y747997D01*
X213999D01*
X215332Y746665D01*
Y743999D01*
X213999Y742666D01*
X210000D01*
X212666D02*
X215332Y740000D01*
X225995D02*
Y747997D01*
X229994D01*
X231327Y746665D01*
Y743999D01*
X229994Y742666D01*
X225995D01*
X235325Y740000D02*
X237991D01*
X239324Y741333D01*
Y743999D01*
X237991Y745332D01*
X235325D01*
X233992Y743999D01*
Y741333D01*
X235325Y740000D01*
X243323Y746665D02*
Y745332D01*
X241990D01*
X244655D01*
X243323D01*
Y741333D01*
X244655Y740000D01*
X320000Y747997D02*
Y740000D01*
X325332D01*
X335995D02*
Y747997D01*
X339994D01*
X341326Y746665D01*
Y743999D01*
X339994Y742666D01*
X335995D01*
X345325Y740000D02*
X347991D01*
X349324Y741333D01*
Y743999D01*
X347991Y745332D01*
X345325D01*
X343992Y743999D01*
Y741333D01*
X345325Y740000D01*
X353323Y746665D02*
Y745332D01*
X351990D01*
X354655D01*
X353323D01*
Y741333D01*
X354655Y740000D01*
X25332Y177997D02*
X22666D01*
X23999D01*
Y171333D01*
X22666Y170000D01*
X21333D01*
X20000Y171333D01*
X27997Y176665D02*
X29330Y177997D01*
X31996D01*
X33329Y176665D01*
Y175332D01*
X31996Y173999D01*
X30663D01*
X31996D01*
X33329Y172666D01*
Y171333D01*
X31996Y170000D01*
X29330D01*
X27997Y171333D01*
X610000Y230000D02*
Y237997D01*
X613999D01*
X615332Y236665D01*
Y233999D01*
X613999Y232666D01*
X610000D01*
X612666D02*
X615332Y230000D01*
X617997D02*
Y237997D01*
X621996D01*
X623329Y236665D01*
Y233999D01*
X621996Y232666D01*
X617997D01*
X625995Y230000D02*
X628661D01*
X627328D01*
Y235332D01*
X625995D01*
X620000Y567997D02*
Y566665D01*
X622666Y563999D01*
X625332Y566665D01*
Y567997D01*
X622666Y563999D02*
Y560000D01*
X629330Y565332D02*
X631996D01*
X633329Y563999D01*
Y560000D01*
X629330D01*
X627997Y561333D01*
X629330Y562666D01*
X633329D01*
X635995Y565332D02*
Y561333D01*
X637328Y560000D01*
X638661Y561333D01*
X639994Y560000D01*
X641327Y561333D01*
Y565332D01*
X657321Y566665D02*
X655988Y567997D01*
X653323D01*
X651990Y566665D01*
Y565332D01*
X653323Y563999D01*
X655988D01*
X657321Y562666D01*
Y561333D01*
X655988Y560000D01*
X653323D01*
X651990Y561333D01*
X663986Y560000D02*
X661320D01*
X659987Y561333D01*
Y563999D01*
X661320Y565332D01*
X663986D01*
X665319Y563999D01*
Y562666D01*
X659987D01*
X667984Y565332D02*
Y560000D01*
Y562666D01*
X669317Y563999D01*
X670650Y565332D01*
X671983D01*
X675982D02*
X678648Y560000D01*
X681313Y565332D01*
X685312Y560000D02*
X687978D01*
X689311Y561333D01*
Y563999D01*
X687978Y565332D01*
X685312D01*
X683979Y563999D01*
Y561333D01*
X685312Y560000D01*
X620000Y500000D02*
Y507997D01*
X623999D01*
X625332Y506665D01*
Y503999D01*
X623999Y502666D01*
X620000D01*
X627997Y500000D02*
X630663D01*
X629330D01*
Y505332D01*
X627997D01*
X635995Y506665D02*
Y505332D01*
X634662D01*
X637328D01*
X635995D01*
Y501333D01*
X637328Y500000D01*
X646658Y505332D02*
X642659D01*
X641327Y503999D01*
Y501333D01*
X642659Y500000D01*
X646658D01*
X649324Y507997D02*
Y500000D01*
Y503999D01*
X650657Y505332D01*
X653323D01*
X654656Y503999D01*
Y500000D01*
X670650Y506665D02*
X669317Y507997D01*
X666652D01*
X665319Y506665D01*
Y505332D01*
X666652Y503999D01*
X669317D01*
X670650Y502666D01*
Y501333D01*
X669317Y500000D01*
X666652D01*
X665319Y501333D01*
X677315Y500000D02*
X674649D01*
X673316Y501333D01*
Y503999D01*
X674649Y505332D01*
X677315D01*
X678648Y503999D01*
Y502666D01*
X673316D01*
X681314Y505332D02*
Y500000D01*
Y502666D01*
X682646Y503999D01*
X683979Y505332D01*
X685312D01*
X689311D02*
X691977Y500000D01*
X694643Y505332D01*
X698641Y500000D02*
X701307D01*
X702640Y501333D01*
Y503999D01*
X701307Y505332D01*
X698641D01*
X697308Y503999D01*
Y501333D01*
X698641Y500000D01*
X625332Y446665D02*
X623999Y447997D01*
X621333D01*
X620000Y446665D01*
Y445332D01*
X621333Y443999D01*
X623999D01*
X625332Y442666D01*
Y441333D01*
X623999Y440000D01*
X621333D01*
X620000Y441333D01*
X633329Y445332D02*
X629330D01*
X627997Y443999D01*
Y441333D01*
X629330Y440000D01*
X633329D01*
X637328Y445332D02*
X639994D01*
X641327Y443999D01*
Y440000D01*
X637328D01*
X635995Y441333D01*
X637328Y442666D01*
X641327D01*
X643992Y440000D02*
Y445332D01*
X647991D01*
X649324Y443999D01*
Y440000D01*
X665319Y446665D02*
X663986Y447997D01*
X661320D01*
X659987Y446665D01*
Y445332D01*
X661320Y443999D01*
X663986D01*
X665319Y442666D01*
Y441333D01*
X663986Y440000D01*
X661320D01*
X659987Y441333D01*
X671983Y440000D02*
X669317D01*
X667984Y441333D01*
Y443999D01*
X669317Y445332D01*
X671983D01*
X673316Y443999D01*
Y442666D01*
X667984D01*
X675982Y445332D02*
Y440000D01*
Y442666D01*
X677315Y443999D01*
X678648Y445332D01*
X679981D01*
X683979D02*
X686645Y440000D01*
X689311Y445332D01*
X693310Y440000D02*
X695975D01*
X697308Y441333D01*
Y443999D01*
X695975Y445332D01*
X693310D01*
X691977Y443999D01*
Y441333D01*
X693310Y440000D01*
X630000Y360000D02*
Y367997D01*
X633999D01*
X635332Y366665D01*
Y363999D01*
X633999Y362666D01*
X630000D01*
X632666D02*
X635332Y360000D01*
X651327Y366665D02*
X649994Y367997D01*
X647328D01*
X645995Y366665D01*
Y365332D01*
X647328Y363999D01*
X649994D01*
X651327Y362666D01*
Y361333D01*
X649994Y360000D01*
X647328D01*
X645995Y361333D01*
X655325Y360000D02*
X657991D01*
X659324Y361333D01*
Y363999D01*
X657991Y365332D01*
X655325D01*
X653992Y363999D01*
Y361333D01*
X655325Y360000D01*
X661990D02*
Y365332D01*
X665988D01*
X667321Y363999D01*
Y360000D01*
X671320Y365332D02*
X673986D01*
X675319Y363999D01*
Y360000D01*
X671320D01*
X669987Y361333D01*
X671320Y362666D01*
X675319D01*
X677984Y365332D02*
Y360000D01*
Y362666D01*
X679317Y363999D01*
X680650Y365332D01*
X681983D01*
X630000Y297997D02*
Y290000D01*
X635332D01*
X651327Y296665D02*
X649994Y297997D01*
X647328D01*
X645995Y296665D01*
Y295332D01*
X647328Y293999D01*
X649994D01*
X651327Y292666D01*
Y291333D01*
X649994Y290000D01*
X647328D01*
X645995Y291333D01*
X655325Y290000D02*
X657991D01*
X659324Y291333D01*
Y293999D01*
X657991Y295332D01*
X655325D01*
X653992Y293999D01*
Y291333D01*
X655325Y290000D01*
X661990D02*
Y295332D01*
X665988D01*
X667321Y293999D01*
Y290000D01*
X671320Y295332D02*
X673986D01*
X675319Y293999D01*
Y290000D01*
X671320D01*
X669987Y291333D01*
X671320Y292666D01*
X675319D01*
X677984Y295332D02*
Y290000D01*
Y292666D01*
X679317Y293999D01*
X680650Y295332D01*
X681983D01*
X410000Y740000D02*
Y747997D01*
X413999D01*
X415332Y746665D01*
Y743999D01*
X413999Y742666D01*
X410000D01*
X412666D02*
X415332Y740000D01*
X431326Y747997D02*
X425995D01*
Y740000D01*
X431326D01*
X425995Y743999D02*
X428661D01*
X433992Y745332D02*
Y741333D01*
X435325Y740000D01*
X439324D01*
Y738667D01*
X437991Y737334D01*
X436658D01*
X439324Y740000D02*
Y745332D01*
X445988Y740000D02*
X443323D01*
X441990Y741333D01*
Y743999D01*
X443323Y745332D01*
X445988D01*
X447321Y743999D01*
Y742666D01*
X441990D01*
X457985Y747997D02*
Y740000D01*
X463316D01*
X471314Y747997D02*
X465982D01*
Y740000D01*
X471314D01*
X465982Y743999D02*
X468648D01*
X473979Y747997D02*
Y740000D01*
X477978D01*
X479311Y741333D01*
Y746665D01*
X477978Y747997D01*
X473979D01*
X520000D02*
Y740000D01*
X525332D01*
X541326Y747997D02*
X535995D01*
Y740000D01*
X541326D01*
X535995Y743999D02*
X538661D01*
X543992Y745332D02*
Y741333D01*
X545325Y740000D01*
X549324D01*
Y738667D01*
X547991Y737334D01*
X546658D01*
X549324Y740000D02*
Y745332D01*
X555988Y740000D02*
X553323D01*
X551990Y741333D01*
Y743999D01*
X553323Y745332D01*
X555988D01*
X557321Y743999D01*
Y742666D01*
X551990D01*
X567985Y747997D02*
Y740000D01*
X573316D01*
X581314Y747997D02*
X575982D01*
Y740000D01*
X581314D01*
X575982Y743999D02*
X578648D01*
X583979Y747997D02*
Y740000D01*
X587978D01*
X589311Y741333D01*
Y746665D01*
X587978Y747997D01*
X583979D01*
X130000Y517997D02*
Y510000D01*
Y512666D01*
X135332Y517997D01*
X131333Y513999D01*
X135332Y510000D01*
X137997D02*
X140663D01*
X139330D01*
Y517997D01*
X137997Y516665D01*
X510000Y160000D02*
Y167997D01*
X513999D01*
X515332Y166665D01*
Y163999D01*
X513999Y162666D01*
X510000D01*
X517997Y160000D02*
X520663D01*
X519330D01*
Y167997D01*
X517997Y166665D01*
X65332Y641333D02*
Y646665D01*
X63999Y647997D01*
X61333D01*
X60000Y646665D01*
Y641333D01*
X61333Y640000D01*
X63999D01*
X62666Y642666D02*
X65332Y640000D01*
X63999D02*
X65332Y641333D01*
X67997Y640000D02*
X70663D01*
X69330D01*
Y647997D01*
X67997Y646665D01*
X138428Y594837D02*
Y600168D01*
X137095Y601501D01*
X134429D01*
X133096Y600168D01*
Y594837D01*
X134429Y593504D01*
X137095D01*
X135762Y596170D02*
X138428Y593504D01*
X137095D02*
X138428Y594837D01*
X146425Y593504D02*
X141093D01*
X146425Y598836D01*
Y600168D01*
X145092Y601501D01*
X142426D01*
X141093Y600168D01*
X280000Y410000D02*
Y417997D01*
X283999D01*
X285332Y416665D01*
Y413999D01*
X283999Y412666D01*
X280000D01*
X282666D02*
X285332Y410000D01*
X287997D02*
X290663D01*
X289330D01*
Y417997D01*
X287997Y416665D01*
X264922Y477012D02*
Y485009D01*
X268921D01*
X270254Y483676D01*
Y481011D01*
X268921Y479678D01*
X264922D01*
X267588D02*
X270254Y477012D01*
X278251D02*
X272919D01*
X278251Y482344D01*
Y483676D01*
X276918Y485009D01*
X274252D01*
X272919Y483676D01*
X130000Y700000D02*
Y707997D01*
X133999D01*
X135332Y706665D01*
Y703999D01*
X133999Y702666D01*
X130000D01*
X132666D02*
X135332Y700000D01*
X137997Y706665D02*
X139330Y707997D01*
X141996D01*
X143329Y706665D01*
Y705332D01*
X141996Y703999D01*
X140663D01*
X141996D01*
X143329Y702666D01*
Y701333D01*
X141996Y700000D01*
X139330D01*
X137997Y701333D01*
X185006Y592074D02*
Y600071D01*
X189005D01*
X190338Y598739D01*
Y596073D01*
X189005Y594740D01*
X185006D01*
X187672D02*
X190338Y592074D01*
X197002D02*
Y600071D01*
X193003Y596073D01*
X198335D01*
X299000Y20000D02*
Y27997D01*
X302999D01*
X304332Y26665D01*
Y23999D01*
X302999Y22666D01*
X299000D01*
X301666D02*
X304332Y20000D01*
X312329Y27997D02*
X306997D01*
Y23999D01*
X309663Y25332D01*
X310996D01*
X312329Y23999D01*
Y21333D01*
X310996Y20000D01*
X308330D01*
X306997Y21333D01*
X600000Y390000D02*
Y397997D01*
X603999D01*
X605332Y396665D01*
Y393999D01*
X603999Y392666D01*
X600000D01*
X602666D02*
X605332Y390000D01*
X613329Y397997D02*
X610663Y396665D01*
X607997Y393999D01*
Y391333D01*
X609330Y390000D01*
X611996D01*
X613329Y391333D01*
Y392666D01*
X611996Y393999D01*
X607997D01*
X600000Y320000D02*
Y327997D01*
X603999D01*
X605332Y326665D01*
Y323999D01*
X603999Y322666D01*
X600000D01*
X602666D02*
X605332Y320000D01*
X613329Y327997D02*
X610663Y326665D01*
X607997Y323999D01*
Y321333D01*
X609330Y320000D01*
X611996D01*
X613329Y321333D01*
Y322666D01*
X611996Y323999D01*
X607997D01*
X535000Y386000D02*
Y393997D01*
X538999D01*
X540332Y392664D01*
Y389999D01*
X538999Y388666D01*
X535000D01*
X537666D02*
X540332Y386000D01*
X542997Y393997D02*
X548329D01*
Y392664D01*
X542997Y387333D01*
Y386000D01*
X535000Y316000D02*
Y323997D01*
X538999D01*
X540332Y322664D01*
Y319999D01*
X538999Y318666D01*
X535000D01*
X537666D02*
X540332Y316000D01*
X542997Y323997D02*
X548329D01*
Y322664D01*
X542997Y317333D01*
Y316000D01*
X466952Y623970D02*
Y631967D01*
X470951D01*
X472284Y630634D01*
Y627969D01*
X470951Y626636D01*
X466952D01*
X469618D02*
X472284Y623970D01*
X474949Y630634D02*
X476282Y631967D01*
X478948D01*
X480281Y630634D01*
Y629302D01*
X478948Y627969D01*
X480281Y626636D01*
Y625303D01*
X478948Y623970D01*
X476282D01*
X474949Y625303D01*
Y626636D01*
X476282Y627969D01*
X474949Y629302D01*
Y630634D01*
X476282Y627969D02*
X478948D01*
X250000Y577997D02*
Y571333D01*
X251333Y570000D01*
X253999D01*
X255332Y571333D01*
Y577997D01*
X257997Y570000D02*
X260663D01*
X259330D01*
Y577997D01*
X257997Y576665D01*
X236014Y335177D02*
Y328513D01*
X237347Y327180D01*
X240013D01*
X241346Y328513D01*
Y335177D01*
X249343Y327180D02*
X244011D01*
X249343Y332512D01*
Y333844D01*
X248010Y335177D01*
X245344D01*
X244011Y333844D01*
X369000Y262000D02*
Y269997D01*
X371666Y267332D01*
X374332Y269997D01*
Y262000D01*
X378330Y267332D02*
X380996D01*
X382329Y265999D01*
Y262000D01*
X378330D01*
X376997Y263333D01*
X378330Y264666D01*
X382329D01*
X384995Y267332D02*
Y262000D01*
Y264666D01*
X386328Y265999D01*
X387661Y267332D01*
X388994D01*
X392992D02*
X395658Y262000D01*
X398324Y267332D01*
X400990Y262000D02*
X403656D01*
X402323D01*
Y267332D01*
X400990D01*
X407654Y262000D02*
Y267332D01*
X411653D01*
X412986Y265999D01*
Y262000D01*
X423649Y267332D02*
X426315Y262000D01*
X428981Y267332D01*
X431646Y262000D02*
X434312D01*
X432979D01*
Y269997D01*
X431646Y268664D01*
X438311Y262000D02*
Y263333D01*
X439644D01*
Y262000D01*
X438311D01*
X444976Y268664D02*
X446308Y269997D01*
X448974D01*
X450307Y268664D01*
Y263333D01*
X448974Y262000D01*
X446308D01*
X444976Y263333D01*
Y268664D01*
X559666Y96331D02*
Y94664D01*
X558000D01*
X561332D01*
X559666D01*
Y89666D01*
X561332Y88000D01*
X566331Y97997D02*
Y88000D01*
X571329D01*
X572995Y89666D01*
Y91332D01*
Y92998D01*
X571329Y94664D01*
X566331D01*
X581326Y88000D02*
X577994D01*
X576327Y89666D01*
Y92998D01*
X577994Y94664D01*
X581326D01*
X582992Y92998D01*
Y91332D01*
X576327D01*
X587990Y94664D02*
X591323D01*
X592989Y92998D01*
Y88000D01*
X587990D01*
X586324Y89666D01*
X587990Y91332D01*
X592989D01*
X596321Y94664D02*
Y89666D01*
X597987Y88000D01*
X602985D01*
Y94664D01*
X606318Y88000D02*
Y94664D01*
X607984D01*
X609650Y92998D01*
Y88000D01*
Y92998D01*
X611316Y94664D01*
X612982Y92998D01*
Y88000D01*
X617981Y94664D02*
X621313D01*
X622979Y92998D01*
Y88000D01*
X617981D01*
X616315Y89666D01*
X617981Y91332D01*
X622979D01*
X626311Y88000D02*
Y94664D01*
X631310D01*
X632976Y92998D01*
Y88000D01*
X559000Y117329D02*
Y107332D01*
X563998D01*
X565664Y108998D01*
Y110664D01*
Y112331D01*
X563998Y113997D01*
X559000D01*
X570663D02*
X573995D01*
X575661Y112331D01*
Y107332D01*
X570663D01*
X568997Y108998D01*
X570663Y110664D01*
X575661D01*
X578993Y107332D02*
Y113997D01*
X583992D01*
X585658Y112331D01*
Y107332D01*
X590657Y115663D02*
Y113997D01*
X588990D01*
X592323D01*
X590657D01*
Y108998D01*
X592323Y107332D01*
X597321Y117329D02*
Y107332D01*
Y112331D01*
X598987Y113997D01*
X602319D01*
X603985Y112331D01*
Y107332D01*
X608984D02*
X612316D01*
X613982Y108998D01*
Y112331D01*
X612316Y113997D01*
X608984D01*
X607318Y112331D01*
Y108998D01*
X608984Y107332D01*
X617314D02*
Y113997D01*
X622313D01*
X623979Y112331D01*
Y107332D01*
X627311Y113997D02*
Y108998D01*
X628977Y107332D01*
X633976D01*
Y105666D01*
X632310Y104000D01*
X630644D01*
X633976Y107332D02*
Y113997D01*
X559666Y152664D02*
X562998D01*
X564664Y150998D01*
Y146000D01*
X559666D01*
X558000Y147666D01*
X559666Y149332D01*
X564664D01*
X567997Y155997D02*
Y146000D01*
X572995D01*
X574661Y147666D01*
Y149332D01*
Y150998D01*
X572995Y152664D01*
X567997D01*
X579660D02*
X582992D01*
X584658Y150998D01*
Y146000D01*
X579660D01*
X577994Y147666D01*
X579660Y149332D01*
X584658D01*
X587990Y152664D02*
Y146000D01*
Y149332D01*
X589656Y150998D01*
X591323Y152664D01*
X592989D01*
X597987D02*
Y147666D01*
X599653Y146000D01*
X604652D01*
Y144334D01*
X602985Y142668D01*
X601319D01*
X604652Y146000D02*
Y152664D01*
X559666Y133665D02*
X562998D01*
X564664Y131998D01*
Y127000D01*
X559666D01*
X558000Y128666D01*
X559666Y130332D01*
X564664D01*
X567997Y127000D02*
Y133665D01*
X569663D01*
X571329Y131998D01*
Y127000D01*
Y131998D01*
X572995Y133665D01*
X574661Y131998D01*
Y127000D01*
X577994Y133665D02*
Y128666D01*
X579660Y127000D01*
X584658D01*
Y133665D01*
X587990Y127000D02*
X591323D01*
X589656D01*
Y136997D01*
X587990D01*
X596321Y127000D02*
X599653D01*
X597987D01*
Y133665D01*
X596321D01*
X604652Y127000D02*
Y133665D01*
X609650D01*
X611316Y131998D01*
Y127000D01*
X78000Y17000D02*
Y26997D01*
X81332Y23665D01*
X84664Y26997D01*
Y17000D01*
X89663Y23665D02*
X92995D01*
X94661Y21998D01*
Y17000D01*
X89663D01*
X87997Y18666D01*
X89663Y20332D01*
X94661D01*
X104658Y26997D02*
Y17000D01*
X99660D01*
X97994Y18666D01*
Y21998D01*
X99660Y23665D01*
X104658D01*
X112989Y17000D02*
X109656D01*
X107990Y18666D01*
Y21998D01*
X109656Y23665D01*
X112989D01*
X114655Y21998D01*
Y20332D01*
X107990D01*
X127984Y17000D02*
X131316D01*
X129650D01*
Y23665D01*
X127984D01*
X136314Y17000D02*
Y23665D01*
X141313D01*
X142979Y21998D01*
Y17000D01*
X162973Y26997D02*
X156308D01*
Y21998D01*
X159640D01*
X156308D01*
Y17000D01*
X166305Y23665D02*
Y17000D01*
Y20332D01*
X167971Y21998D01*
X169637Y23665D01*
X171303D01*
X177968D02*
X181300D01*
X182966Y21998D01*
Y17000D01*
X177968D01*
X176302Y18666D01*
X177968Y20332D01*
X182966D01*
X186298Y17000D02*
Y23665D01*
X191297D01*
X192963Y21998D01*
Y17000D01*
X202960Y23665D02*
X197961D01*
X196295Y21998D01*
Y18666D01*
X197961Y17000D01*
X202960D01*
X211290D02*
X207958D01*
X206292Y18666D01*
Y21998D01*
X207958Y23665D01*
X211290D01*
X212957Y21998D01*
Y20332D01*
X206292D01*
X340000Y249997D02*
Y242000D01*
X343999D01*
X345332Y243333D01*
Y248664D01*
X343999Y249997D01*
X340000D01*
X351996Y242000D02*
X349330D01*
X347997Y243333D01*
Y245999D01*
X349330Y247332D01*
X351996D01*
X353329Y245999D01*
Y244666D01*
X347997D01*
X355995Y242000D02*
X359994D01*
X361326Y243333D01*
X359994Y244666D01*
X357328D01*
X355995Y245999D01*
X357328Y247332D01*
X361326D01*
X363992Y242000D02*
X366658D01*
X365325D01*
Y247332D01*
X363992D01*
X373323Y239334D02*
X374655D01*
X375988Y240667D01*
Y247332D01*
X371990D01*
X370657Y245999D01*
Y243333D01*
X371990Y242000D01*
X375988D01*
X378654D02*
Y247332D01*
X382653D01*
X383986Y245999D01*
Y242000D01*
X390650D02*
X387985D01*
X386652Y243333D01*
Y245999D01*
X387985Y247332D01*
X390650D01*
X391983Y245999D01*
Y244666D01*
X386652D01*
X399981Y249997D02*
Y242000D01*
X395982D01*
X394649Y243333D01*
Y245999D01*
X395982Y247332D01*
X399981D01*
X410644Y242000D02*
X413310D01*
X411977D01*
Y247332D01*
X410644D01*
X417308Y242000D02*
Y247332D01*
X421307D01*
X422640Y245999D01*
Y242000D01*
X433303Y249997D02*
Y242000D01*
X438635D01*
X442634Y247332D02*
X445299D01*
X446632Y245999D01*
Y242000D01*
X442634D01*
X441301Y243333D01*
X442634Y244666D01*
X446632D01*
X449298Y249997D02*
Y242000D01*
X453297D01*
X454630Y243333D01*
Y244666D01*
Y245999D01*
X453297Y247332D01*
X449298D01*
X461294Y242000D02*
X458628D01*
X457295Y243333D01*
Y245999D01*
X458628Y247332D01*
X461294D01*
X462627Y245999D01*
Y244666D01*
X457295D01*
X465293Y242000D02*
X467959D01*
X466626D01*
Y249997D01*
X465293D01*
X475956Y242000D02*
X473290D01*
X471958Y243333D01*
Y245999D01*
X473290Y247332D01*
X475956D01*
X477289Y245999D01*
Y244666D01*
X471958D01*
X485286Y247332D02*
X481288D01*
X479955Y245999D01*
Y243333D01*
X481288Y242000D01*
X485286D01*
X205330Y774000D02*
X196000D01*
X205330Y783330D01*
Y785663D01*
X202998Y787996D01*
X198333D01*
X196000Y785663D01*
X209995D02*
X212328Y787996D01*
X216993D01*
X219326Y785663D01*
Y776333D01*
X216993Y774000D01*
X212328D01*
X209995Y776333D01*
Y785663D01*
X223991Y774000D02*
X228656D01*
X226324D01*
Y787996D01*
X223991Y785663D01*
X244984Y787996D02*
X240319Y785663D01*
X235654Y780998D01*
Y776333D01*
X237986Y774000D01*
X242652D01*
X244984Y776333D01*
Y778665D01*
X242652Y780998D01*
X235654D01*
X263645D02*
X272975D01*
X298633Y774000D02*
Y787996D01*
X291636Y780998D01*
X300966D01*
X314961Y774000D02*
X305631D01*
X314961Y783330D01*
Y785663D01*
X312629Y787996D01*
X307964D01*
X305631Y785663D01*
X319627Y787996D02*
Y774000D01*
X326624D01*
X328957Y776333D01*
Y778665D01*
Y780998D01*
X326624Y783330D01*
X319627D01*
X335955Y774000D02*
X340620D01*
X342952Y776333D01*
Y780998D01*
X340620Y783330D01*
X335955D01*
X333622Y780998D01*
Y776333D01*
X335955Y774000D01*
X347618Y783330D02*
Y774000D01*
Y778665D01*
X349950Y780998D01*
X352283Y783330D01*
X354615D01*
X361613Y774000D02*
Y783330D01*
X368611D01*
X370943Y780998D01*
Y774000D01*
X384939D02*
X375609D01*
X384939Y783330D01*
Y785663D01*
X382606Y787996D01*
X377941D01*
X375609Y785663D01*
X398934Y783330D02*
X391937D01*
X389604Y780998D01*
Y776333D01*
X391937Y774000D01*
X398934D01*
X405932D02*
X410597D01*
X412930Y776333D01*
Y780998D01*
X410597Y783330D01*
X405932D01*
X403600Y780998D01*
Y776333D01*
X405932Y774000D01*
X426925Y787996D02*
Y774000D01*
X419928D01*
X417595Y776333D01*
Y780998D01*
X419928Y783330D01*
X426925D01*
X438588Y774000D02*
X433923D01*
X431590Y776333D01*
Y780998D01*
X433923Y783330D01*
X438588D01*
X440921Y780998D01*
Y778665D01*
X431590D01*
X459581Y780998D02*
X468912D01*
X487572Y774000D02*
Y787996D01*
X494570D01*
X496903Y785663D01*
Y780998D01*
X494570Y778665D01*
X487572D01*
X503900Y783330D02*
X508566D01*
X510898Y780998D01*
Y774000D01*
X503900D01*
X501568Y776333D01*
X503900Y778665D01*
X510898D01*
X515563Y783330D02*
Y774000D01*
Y778665D01*
X517896Y780998D01*
X520229Y783330D01*
X522561D01*
X529559Y774000D02*
X534224D01*
X531891D01*
Y783330D01*
X529559D01*
X541222Y774000D02*
X548219D01*
X550552Y776333D01*
X548219Y778665D01*
X543554D01*
X541222Y780998D01*
X543554Y783330D01*
X550552D01*
D34*
X445450Y330510D02*
G03*
X369271Y330240I-37450J-180510D01*
G01*
X448000Y338000D02*
G03*
X448000Y338000I-40000J0D01*
G01*
X388500Y299750D02*
G03*
X383155Y277125I36966J-20677D01*
G01*
X399247Y298551D02*
G03*
X419250Y299000I9805J8969D01*
G01*
X433345Y277625D02*
G03*
X428000Y300250I-42311J1948D01*
G01*
X393950Y152850D02*
X417150D01*
X490000D02*
X526050D01*
X393950Y-52850D02*
X526050D01*
Y70000D02*
Y152850D01*
Y-52850D02*
Y40000D01*
X393950Y-52850D02*
Y40000D01*
Y70000D02*
Y152850D01*
D35*
X275000Y495000D02*
X275500D01*
D36*
X302500Y160000D02*
D03*
D37*
X150000Y112500D02*
D03*
D38*
X240000Y85500D02*
D03*
D39*
X644500Y640000D02*
D03*
M02*
