M48
;Layer_Color=9474304
;FILE_FORMAT=4:4
METRIC,LZ
;TYPE=PLATED
T1F00S00C0.3000
T2F00S00C0.9000
T3F00S00C1.0000
T4F00S00C1.2000
;TYPE=NON_PLATED
T5F00S00C3.2500
%
T01
X00244Y00101
X003495Y001
Y00119
Y00136
X002435Y00135
X00244Y00118
X00218Y00224
Y00249
Y00263
X00268Y00293
X00284
X00322
X00367Y00374
X00366Y00387
X00146Y00247
X00155Y00238
X00127Y00262
X00125Y0015
X001035Y001975
X00049Y00197
X00015Y00242
Y00316
X00051Y00378601
X00055Y00518
X00112
X00166Y00516
X00315Y00517
X00368Y00518
T02
X00066Y0009
X00091
X00116
X001035Y00115
X000785
X000535
T03
X002785Y00104
X003845
X003495Y00154
X002435
T04
X00166Y00491
X00216
X00266
T05
X00033Y00026
X00135
M30
