%FSLAX44Y44*%
%MOMM*%
G71*
G01*
G75*
%ADD10R,0.6000X0.9000*%
%ADD11R,0.9000X0.6000*%
%ADD12R,1.3000X0.7000*%
%ADD13R,1.6800X1.5200*%
%ADD14O,0.3000X1.5000*%
%ADD15R,0.3000X1.5000*%
%ADD16R,1.5000X0.3000*%
%ADD17R,2.0000X1.2000*%
%ADD18R,5.6000X5.6000*%
%ADD19R,5.5000X2.0000*%
%ADD20C,1.0000*%
%ADD21C,0.2000*%
%ADD22C,1.5000*%
%ADD23O,0.7500X0.7000*%
%ADD24R,1.5000X1.5000*%
%ADD25C,2.0000*%
%ADD26C,0.7000*%
D10*
X137000Y197000D02*
D03*
X122000D02*
D03*
X156000Y348000D02*
D03*
X171000D02*
D03*
X156000Y363000D02*
D03*
X171000D02*
D03*
X129000Y369000D02*
D03*
X144000D02*
D03*
X119000Y369000D02*
D03*
X104000D02*
D03*
X266000Y308000D02*
D03*
X281000D02*
D03*
X118000Y166000D02*
D03*
X133000D02*
D03*
D11*
X201000Y282500D02*
D03*
Y267500D02*
D03*
X38000Y265000D02*
D03*
Y250000D02*
D03*
X201000Y241000D02*
D03*
Y256000D02*
D03*
X38000Y282000D02*
D03*
Y297000D02*
D03*
X300000Y308000D02*
D03*
Y293000D02*
D03*
X249000Y308000D02*
D03*
Y293000D02*
D03*
X396000Y474000D02*
D03*
Y459000D02*
D03*
X350000Y474000D02*
D03*
Y459000D02*
D03*
X82000Y474000D02*
D03*
Y459000D02*
D03*
X31000Y474000D02*
D03*
Y459000D02*
D03*
X239000Y273000D02*
D03*
Y258000D02*
D03*
D12*
X15000Y280000D02*
D03*
Y299000D02*
D03*
X336000Y253000D02*
D03*
Y234000D02*
D03*
X383000Y355000D02*
D03*
Y374000D02*
D03*
X340000Y311000D02*
D03*
Y292000D02*
D03*
X239000Y224000D02*
D03*
Y243000D02*
D03*
X396000Y512000D02*
D03*
Y493000D02*
D03*
X350000Y511000D02*
D03*
Y492000D02*
D03*
X82000Y511000D02*
D03*
Y492000D02*
D03*
X31000Y511000D02*
D03*
Y492000D02*
D03*
D13*
X383000Y257000D02*
D03*
Y224000D02*
D03*
X279000Y257000D02*
D03*
Y224000D02*
D03*
D14*
X82000Y217000D02*
D03*
D15*
X87000D02*
D03*
X92000D02*
D03*
X97000D02*
D03*
X102000D02*
D03*
X107000D02*
D03*
X112000D02*
D03*
X117000D02*
D03*
X122000D02*
D03*
X127000D02*
D03*
X132000D02*
D03*
X137000D02*
D03*
X142000D02*
D03*
X147000D02*
D03*
X152000D02*
D03*
X157000D02*
D03*
Y332000D02*
D03*
X152000D02*
D03*
X147000D02*
D03*
X142000D02*
D03*
X137000D02*
D03*
X132000D02*
D03*
X127000D02*
D03*
X122000D02*
D03*
X117000D02*
D03*
X112000D02*
D03*
X107000D02*
D03*
X102000D02*
D03*
X97000D02*
D03*
X92000D02*
D03*
X87000D02*
D03*
X82000D02*
D03*
D16*
X177000Y237000D02*
D03*
Y242000D02*
D03*
Y247000D02*
D03*
Y252000D02*
D03*
Y257000D02*
D03*
Y262000D02*
D03*
Y267000D02*
D03*
Y272000D02*
D03*
Y277000D02*
D03*
Y282000D02*
D03*
Y287000D02*
D03*
Y292000D02*
D03*
Y297000D02*
D03*
Y302000D02*
D03*
Y307000D02*
D03*
Y312000D02*
D03*
X62000D02*
D03*
Y307000D02*
D03*
Y302000D02*
D03*
Y297000D02*
D03*
Y292000D02*
D03*
Y287000D02*
D03*
Y282000D02*
D03*
Y277000D02*
D03*
Y272000D02*
D03*
Y267000D02*
D03*
Y262000D02*
D03*
Y257000D02*
D03*
Y252000D02*
D03*
Y247000D02*
D03*
Y242000D02*
D03*
Y237000D02*
D03*
D17*
X345000Y386000D02*
D03*
Y342000D02*
D03*
D18*
X273000Y364000D02*
D03*
D19*
X172000Y400000D02*
D03*
X77000D02*
D03*
D22*
X53500Y115000D02*
D03*
X91000Y90000D02*
D03*
X103500Y115000D02*
D03*
X66000Y90000D02*
D03*
X116000D02*
D03*
X78500Y115000D02*
D03*
X349500Y154000D02*
D03*
X243500D02*
D03*
D23*
X135000Y26000D02*
D03*
X33000D02*
D03*
D24*
X384500Y104000D02*
D03*
X278500D02*
D03*
D25*
X166000Y491000D02*
D03*
X266000D02*
D03*
X216000D02*
D03*
M02*
