%FSLAX44Y44*%
%MOMM*%
G71*
G01*
G75*
G04 Layer_Physical_Order=2*
G04 Layer_Color=16711680*
%ADD10R,0.6000X0.9000*%
%ADD11R,0.9000X0.6000*%
%ADD12R,1.3000X0.7000*%
%ADD13R,1.6800X1.5200*%
%ADD14O,0.3000X1.5000*%
%ADD15R,0.3000X1.5000*%
%ADD16R,1.5000X0.3000*%
%ADD17R,2.0000X1.2000*%
%ADD18R,5.6000X5.6000*%
%ADD19R,5.5000X2.0000*%
%ADD20C,1.0000*%
%ADD21C,0.2000*%
%ADD22C,1.5000*%
%ADD23O,0.7500X0.7000*%
%ADD24R,1.5000X1.5000*%
%ADD25C,2.0000*%
%ADD26C,0.7000*%
G36*
X405000Y5000D02*
X5000D01*
Y580000D01*
X405000D01*
Y5000D01*
D02*
G37*
%LPC*%
G36*
X359459Y152730D02*
X350770D01*
Y144041D01*
X352121Y144219D01*
X354563Y145230D01*
X356661Y146839D01*
X358270Y148937D01*
X359282Y151379D01*
X359459Y152730D01*
D02*
G37*
G36*
X348230D02*
X339541D01*
X339718Y151379D01*
X340730Y148937D01*
X342339Y146839D01*
X344437Y145230D01*
X346879Y144219D01*
X348230Y144041D01*
Y152730D01*
D02*
G37*
G36*
X253459D02*
X244770D01*
Y144041D01*
X246121Y144219D01*
X248563Y145230D01*
X250661Y146839D01*
X252270Y148937D01*
X253281Y151379D01*
X253459Y152730D01*
D02*
G37*
G36*
X125000Y155608D02*
X122854Y155181D01*
X121035Y153965D01*
X119819Y152146D01*
X119409Y150084D01*
X88285Y118960D01*
X87040Y119208D01*
X86798Y119791D01*
X85275Y121775D01*
X83291Y123298D01*
X80980Y124256D01*
X78500Y124582D01*
X76020Y124256D01*
X73709Y123298D01*
X71725Y121775D01*
X70202Y119791D01*
X69244Y117480D01*
X68918Y115000D01*
X69244Y112520D01*
X70202Y110209D01*
X71725Y108224D01*
X73709Y106702D01*
X76020Y105744D01*
X77745Y105518D01*
X78200Y104177D01*
X71657Y97634D01*
X70791Y98298D01*
X68480Y99256D01*
X66000Y99582D01*
X63520Y99256D01*
X61209Y98298D01*
X59225Y96775D01*
X57702Y94791D01*
X56744Y92480D01*
X56418Y90000D01*
X56744Y87520D01*
X57702Y85209D01*
X59225Y83224D01*
X61209Y81702D01*
X63520Y80744D01*
X66000Y80418D01*
X68480Y80744D01*
X70791Y81702D01*
X72775Y83224D01*
X74298Y85209D01*
X75255Y87520D01*
X75582Y90000D01*
X75255Y92480D01*
X75226Y92551D01*
X91163Y108488D01*
X91163Y108488D01*
X91826Y109480D01*
X92059Y110651D01*
X92059Y110651D01*
Y113681D01*
X92813Y114284D01*
X94074Y113812D01*
X94244Y112520D01*
X95202Y110209D01*
X96725Y108224D01*
X98709Y106702D01*
X101020Y105744D01*
X103500Y105418D01*
X105980Y105744D01*
X108291Y106702D01*
X110275Y108224D01*
X111798Y110209D01*
X112755Y112520D01*
X113082Y115000D01*
X112755Y117480D01*
X111798Y119791D01*
X110275Y121775D01*
X108291Y123298D01*
X105980Y124256D01*
X104255Y124482D01*
X103800Y125823D01*
X122819Y144843D01*
X122854Y144819D01*
X125000Y144392D01*
X127146Y144819D01*
X128965Y146035D01*
X130181Y147854D01*
X130608Y150000D01*
X130181Y152146D01*
X128965Y153965D01*
X127146Y155181D01*
X125000Y155608D01*
D02*
G37*
G36*
X348230Y163959D02*
X346879Y163782D01*
X344437Y162770D01*
X342339Y161161D01*
X340730Y159063D01*
X339718Y156621D01*
X339541Y155270D01*
X348230D01*
Y163959D01*
D02*
G37*
G36*
X244770D02*
Y155270D01*
X253459D01*
X253281Y156621D01*
X252270Y159063D01*
X250661Y161161D01*
X248563Y162770D01*
X246121Y163782D01*
X244770Y163959D01*
D02*
G37*
G36*
X242230D02*
X240879Y163782D01*
X238437Y162770D01*
X236339Y161161D01*
X234730Y159063D01*
X233718Y156621D01*
X233541Y155270D01*
X242230D01*
Y163959D01*
D02*
G37*
G36*
Y140906D02*
X241143Y140690D01*
X239145Y139355D01*
X237810Y137357D01*
X237594Y136270D01*
X242230D01*
Y140906D01*
D02*
G37*
G36*
X355406Y134730D02*
X350770D01*
Y130094D01*
X351857Y130310D01*
X353855Y131645D01*
X355190Y133643D01*
X355406Y134730D01*
D02*
G37*
G36*
X348230D02*
X343594D01*
X343810Y133643D01*
X345145Y131645D01*
X347143Y130310D01*
X348230Y130094D01*
Y134730D01*
D02*
G37*
G36*
X244770Y140906D02*
Y136270D01*
X249406D01*
X249189Y137357D01*
X247855Y139355D01*
X245857Y140690D01*
X244770Y140906D01*
D02*
G37*
G36*
X242230Y152730D02*
X233541D01*
X233718Y151379D01*
X234730Y148937D01*
X236339Y146839D01*
X238437Y145230D01*
X240879Y144219D01*
X242230Y144041D01*
Y152730D01*
D02*
G37*
G36*
X350770Y141906D02*
Y137270D01*
X355406D01*
X355190Y138357D01*
X353855Y140355D01*
X351857Y141690D01*
X350770Y141906D01*
D02*
G37*
G36*
X348230D02*
X347143Y141690D01*
X345145Y140355D01*
X343810Y138357D01*
X343594Y137270D01*
X348230D01*
Y141906D01*
D02*
G37*
G36*
X219270Y229906D02*
Y225270D01*
X223906D01*
X223689Y226357D01*
X222355Y228355D01*
X220357Y229690D01*
X219270Y229906D01*
D02*
G37*
G36*
X216730D02*
X215643Y229690D01*
X213645Y228355D01*
X212310Y226357D01*
X212094Y225270D01*
X216730D01*
Y229906D01*
D02*
G37*
G36*
X223906Y222730D02*
X219270D01*
Y218094D01*
X220357Y218311D01*
X222355Y219645D01*
X223689Y221643D01*
X223906Y222730D01*
D02*
G37*
G36*
X13730Y240730D02*
X9094D01*
X9310Y239643D01*
X10645Y237645D01*
X12643Y236311D01*
X13730Y236094D01*
Y240730D01*
D02*
G37*
G36*
X223906Y247730D02*
X219270D01*
Y243094D01*
X220357Y243311D01*
X222355Y244645D01*
X223689Y246643D01*
X223906Y247730D01*
D02*
G37*
G36*
X216730D02*
X212094D01*
X212310Y246643D01*
X213645Y244645D01*
X215643Y243311D01*
X216730Y243094D01*
Y247730D01*
D02*
G37*
G36*
X20906Y240730D02*
X16270D01*
Y236094D01*
X17357Y236311D01*
X19355Y237645D01*
X20689Y239643D01*
X20906Y240730D01*
D02*
G37*
G36*
X47730Y195730D02*
X43094D01*
X43310Y194643D01*
X44645Y192645D01*
X46643Y191311D01*
X47730Y191094D01*
Y195730D01*
D02*
G37*
G36*
X127000Y269060D02*
X125173Y268820D01*
X123470Y268114D01*
X122008Y266992D01*
X98507Y243493D01*
X97386Y242030D01*
X96680Y240327D01*
X96440Y238500D01*
Y197500D01*
X96680Y195673D01*
X97386Y193970D01*
X98507Y192508D01*
X99970Y191385D01*
X101673Y190680D01*
X103500Y190440D01*
X105327Y190680D01*
X107030Y191385D01*
X108492Y192508D01*
X109614Y193970D01*
X110320Y195673D01*
X110560Y197500D01*
Y235576D01*
X131992Y257008D01*
X133115Y258470D01*
X133820Y260173D01*
X134060Y262000D01*
X133820Y263827D01*
X133115Y265530D01*
X131992Y266992D01*
X130530Y268114D01*
X128827Y268820D01*
X127000Y269060D01*
D02*
G37*
G36*
X350770Y163959D02*
Y155270D01*
X359459D01*
X359282Y156621D01*
X358270Y159063D01*
X356661Y161161D01*
X354563Y162770D01*
X352121Y163782D01*
X350770Y163959D01*
D02*
G37*
G36*
X54906Y195730D02*
X50270D01*
Y191094D01*
X51357Y191311D01*
X53355Y192645D01*
X54690Y194643D01*
X54906Y195730D01*
D02*
G37*
G36*
X216730Y222730D02*
X212094D01*
X212310Y221643D01*
X213645Y219645D01*
X215643Y218311D01*
X216730Y218094D01*
Y222730D01*
D02*
G37*
G36*
X50270Y202906D02*
Y198270D01*
X54906D01*
X54690Y199357D01*
X53355Y201355D01*
X51357Y202690D01*
X50270Y202906D01*
D02*
G37*
G36*
X47730D02*
X46643Y202690D01*
X44645Y201355D01*
X43310Y199357D01*
X43094Y198270D01*
X47730D01*
Y202906D01*
D02*
G37*
G36*
X288000Y113500D02*
X269000D01*
Y94500D01*
X288000D01*
Y113500D01*
D02*
G37*
G36*
X355406Y98730D02*
X350770D01*
Y94094D01*
X351857Y94311D01*
X353855Y95645D01*
X355190Y97643D01*
X355406Y98730D01*
D02*
G37*
G36*
X348230D02*
X343594D01*
X343810Y97643D01*
X345145Y95645D01*
X347143Y94311D01*
X348230Y94094D01*
Y98730D01*
D02*
G37*
G36*
X394000Y113500D02*
X375000D01*
Y94500D01*
X394000D01*
Y113500D01*
D02*
G37*
G36*
X348230Y105906D02*
X347143Y105690D01*
X345145Y104355D01*
X343810Y102357D01*
X343594Y101270D01*
X348230D01*
Y105906D01*
D02*
G37*
G36*
X249906Y99730D02*
X245270D01*
Y95094D01*
X246357Y95310D01*
X248355Y96645D01*
X249690Y98643D01*
X249906Y99730D01*
D02*
G37*
G36*
X242730D02*
X238094D01*
X238310Y98643D01*
X239645Y96645D01*
X241643Y95310D01*
X242730Y95094D01*
Y99730D01*
D02*
G37*
G36*
X89730Y88730D02*
X81041D01*
X81218Y87379D01*
X82230Y84937D01*
X83839Y82839D01*
X85937Y81230D01*
X88379Y80218D01*
X89730Y80041D01*
Y88730D01*
D02*
G37*
G36*
X135000Y44338D02*
X131422Y43986D01*
X127982Y42942D01*
X124812Y41248D01*
X122033Y38967D01*
X119752Y36188D01*
X118058Y33018D01*
X117014Y29578D01*
X116662Y26000D01*
X117014Y22422D01*
X118058Y18982D01*
X119752Y15812D01*
X122033Y13033D01*
X124812Y10752D01*
X127982Y9058D01*
X131422Y8014D01*
X135000Y7662D01*
X138578Y8014D01*
X142018Y9058D01*
X145188Y10752D01*
X147967Y13033D01*
X150248Y15812D01*
X151942Y18982D01*
X152986Y22422D01*
X153338Y26000D01*
X152986Y29578D01*
X151942Y33018D01*
X150248Y36188D01*
X147967Y38967D01*
X145188Y41248D01*
X142018Y42942D01*
X138578Y43986D01*
X135000Y44338D01*
D02*
G37*
G36*
X33000D02*
X29422Y43986D01*
X25982Y42942D01*
X22812Y41248D01*
X20033Y38967D01*
X17752Y36188D01*
X16058Y33018D01*
X15014Y29578D01*
X14662Y26000D01*
X15014Y22422D01*
X16058Y18982D01*
X17752Y15812D01*
X20033Y13033D01*
X22812Y10752D01*
X25982Y9058D01*
X29422Y8014D01*
X33000Y7662D01*
X36578Y8014D01*
X40018Y9058D01*
X43188Y10752D01*
X45967Y13033D01*
X48248Y15812D01*
X49942Y18982D01*
X50986Y22422D01*
X51338Y26000D01*
X50986Y29578D01*
X49942Y33018D01*
X48248Y36188D01*
X45967Y38967D01*
X43188Y41248D01*
X40018Y42942D01*
X36578Y43986D01*
X33000Y44338D01*
D02*
G37*
G36*
X100959Y88730D02*
X92270D01*
Y80041D01*
X93621Y80218D01*
X96063Y81230D01*
X98161Y82839D01*
X99770Y84937D01*
X100782Y87379D01*
X100959Y88730D01*
D02*
G37*
G36*
X92270Y99959D02*
Y91270D01*
X100959D01*
X100782Y92621D01*
X99770Y95063D01*
X98161Y97161D01*
X96063Y98770D01*
X93621Y99782D01*
X92270Y99959D01*
D02*
G37*
G36*
X89730D02*
X88379Y99782D01*
X85937Y98770D01*
X83839Y97161D01*
X82230Y95063D01*
X81218Y92621D01*
X81041Y91270D01*
X89730D01*
Y99959D01*
D02*
G37*
G36*
X116000Y99582D02*
X113520Y99256D01*
X111209Y98298D01*
X109225Y96775D01*
X107702Y94791D01*
X106744Y92480D01*
X106418Y90000D01*
X106744Y87520D01*
X107702Y85209D01*
X109225Y83224D01*
X111209Y81702D01*
X113520Y80744D01*
X116000Y80418D01*
X118480Y80744D01*
X120791Y81702D01*
X122775Y83224D01*
X124298Y85209D01*
X125255Y87520D01*
X125582Y90000D01*
X125255Y92480D01*
X124298Y94791D01*
X122775Y96775D01*
X120791Y98298D01*
X118480Y99256D01*
X116000Y99582D01*
D02*
G37*
G36*
X245270Y123906D02*
Y119270D01*
X249906D01*
X249690Y120357D01*
X248355Y122355D01*
X246357Y123689D01*
X245270Y123906D01*
D02*
G37*
G36*
X242730D02*
X241643Y123689D01*
X239645Y122355D01*
X238310Y120357D01*
X238094Y119270D01*
X242730D01*
Y123906D01*
D02*
G37*
G36*
X355406Y117730D02*
X350770D01*
Y113094D01*
X351857Y113310D01*
X353855Y114645D01*
X355190Y116643D01*
X355406Y117730D01*
D02*
G37*
G36*
X348230Y124906D02*
X347143Y124690D01*
X345145Y123355D01*
X343810Y121357D01*
X343594Y120270D01*
X348230D01*
Y124906D01*
D02*
G37*
G36*
X249406Y133730D02*
X244770D01*
Y129094D01*
X245857Y129311D01*
X247855Y130645D01*
X249189Y132643D01*
X249406Y133730D01*
D02*
G37*
G36*
X242230D02*
X237594D01*
X237810Y132643D01*
X239145Y130645D01*
X241143Y129311D01*
X242230Y129094D01*
Y133730D01*
D02*
G37*
G36*
X350770Y124906D02*
Y120270D01*
X355406D01*
X355190Y121357D01*
X353855Y123355D01*
X351857Y124690D01*
X350770Y124906D01*
D02*
G37*
G36*
X245270Y106906D02*
Y102270D01*
X249906D01*
X249690Y103357D01*
X248355Y105355D01*
X246357Y106690D01*
X245270Y106906D01*
D02*
G37*
G36*
X242730D02*
X241643Y106690D01*
X239645Y105355D01*
X238310Y103357D01*
X238094Y102270D01*
X242730D01*
Y106906D01*
D02*
G37*
G36*
X350770Y105906D02*
Y101270D01*
X355406D01*
X355190Y102357D01*
X353855Y104355D01*
X351857Y105690D01*
X350770Y105906D01*
D02*
G37*
G36*
X53500Y124582D02*
X51020Y124256D01*
X48709Y123298D01*
X46725Y121775D01*
X45202Y119791D01*
X44244Y117480D01*
X43918Y115000D01*
X44244Y112520D01*
X45202Y110209D01*
X46725Y108224D01*
X48709Y106702D01*
X51020Y105744D01*
X53500Y105418D01*
X55980Y105744D01*
X58291Y106702D01*
X60275Y108224D01*
X61798Y110209D01*
X62755Y112520D01*
X63082Y115000D01*
X62755Y117480D01*
X61798Y119791D01*
X60275Y121775D01*
X58291Y123298D01*
X55980Y124256D01*
X53500Y124582D01*
D02*
G37*
G36*
X348230Y117730D02*
X343594D01*
X343810Y116643D01*
X345145Y114645D01*
X347143Y113310D01*
X348230Y113094D01*
Y117730D01*
D02*
G37*
G36*
X249906Y116730D02*
X245270D01*
Y112094D01*
X246357Y112310D01*
X248355Y113645D01*
X249690Y115643D01*
X249906Y116730D01*
D02*
G37*
G36*
X242730D02*
X238094D01*
X238310Y115643D01*
X239645Y113645D01*
X241643Y112310D01*
X242730Y112094D01*
Y116730D01*
D02*
G37*
G36*
X13730Y247906D02*
X12643Y247690D01*
X10645Y246355D01*
X9310Y244357D01*
X9094Y243270D01*
X13730D01*
Y247906D01*
D02*
G37*
G36*
X171906Y514730D02*
X167270D01*
Y510094D01*
X168357Y510311D01*
X170355Y511645D01*
X171689Y513643D01*
X171906Y514730D01*
D02*
G37*
G36*
X164730D02*
X160094D01*
X160310Y513643D01*
X161645Y511645D01*
X163643Y510311D01*
X164730Y510094D01*
Y514730D01*
D02*
G37*
G36*
X167270Y503481D02*
Y492270D01*
X178481D01*
X178217Y494274D01*
X176954Y497324D01*
X174944Y499944D01*
X172324Y501954D01*
X169274Y503217D01*
X167270Y503481D01*
D02*
G37*
G36*
X313730Y515730D02*
X309094D01*
X309310Y514643D01*
X310645Y512645D01*
X312643Y511311D01*
X313730Y511094D01*
Y515730D01*
D02*
G37*
G36*
X60906Y516730D02*
X56270D01*
Y512094D01*
X57357Y512310D01*
X59355Y513645D01*
X60690Y515643D01*
X60906Y516730D01*
D02*
G37*
G36*
X53730D02*
X49094D01*
X49310Y515643D01*
X50645Y513645D01*
X52643Y512310D01*
X53730Y512094D01*
Y516730D01*
D02*
G37*
G36*
X320906Y515730D02*
X316270D01*
Y511094D01*
X317357Y511311D01*
X319355Y512645D01*
X320690Y514643D01*
X320906Y515730D01*
D02*
G37*
G36*
X367270Y392906D02*
Y388270D01*
X371906D01*
X371690Y389357D01*
X370355Y391355D01*
X368357Y392690D01*
X367270Y392906D01*
D02*
G37*
G36*
X364730D02*
X363643Y392690D01*
X361645Y391355D01*
X360311Y389357D01*
X360094Y388270D01*
X364730D01*
Y392906D01*
D02*
G37*
G36*
X52270Y384506D02*
Y379870D01*
X56906D01*
X56690Y380957D01*
X55355Y382955D01*
X53357Y384290D01*
X52270Y384506D01*
D02*
G37*
G36*
X164730Y489730D02*
X153519D01*
X153783Y487726D01*
X155046Y484676D01*
X157056Y482056D01*
X159676Y480046D01*
X162726Y478783D01*
X164730Y478519D01*
Y489730D01*
D02*
G37*
G36*
Y503481D02*
X162726Y503217D01*
X159676Y501954D01*
X157056Y499944D01*
X155046Y497324D01*
X153783Y494274D01*
X153519Y492270D01*
X164730D01*
Y503481D01*
D02*
G37*
G36*
X266000Y503104D02*
X262867Y502691D01*
X259948Y501482D01*
X257442Y499558D01*
X255518Y497052D01*
X254309Y494133D01*
X253896Y491000D01*
X254309Y487867D01*
X255518Y484948D01*
X255563Y484889D01*
X152837Y382163D01*
X152174Y381171D01*
X151941Y380000D01*
X151941Y380000D01*
Y250294D01*
X150671Y249909D01*
X149965Y250965D01*
X149059Y251571D01*
Y425733D01*
X206034Y482708D01*
X207301Y482625D01*
X207442Y482441D01*
X209948Y480518D01*
X212867Y479309D01*
X216000Y478896D01*
X219133Y479309D01*
X222052Y480518D01*
X224559Y482441D01*
X226482Y484948D01*
X227691Y487867D01*
X228104Y491000D01*
X227691Y494133D01*
X226482Y497052D01*
X224559Y499558D01*
X222052Y501482D01*
X219133Y502691D01*
X216000Y503104D01*
X212867Y502691D01*
X209948Y501482D01*
X207442Y499558D01*
X205518Y497052D01*
X204309Y494133D01*
X203896Y491000D01*
X204103Y489429D01*
X143837Y429163D01*
X143174Y428171D01*
X142941Y427000D01*
X142941Y427000D01*
Y251571D01*
X142035Y250965D01*
X140819Y249146D01*
X140392Y247000D01*
X140819Y244854D01*
X142035Y243035D01*
X143854Y241819D01*
X146000Y241392D01*
X148146Y241819D01*
X149965Y243035D01*
X150671Y244091D01*
X151819Y243743D01*
X151864Y242519D01*
X151035Y241965D01*
X149819Y240146D01*
X149392Y238000D01*
X149819Y235854D01*
X151035Y234035D01*
X152854Y232819D01*
X155000Y232392D01*
X157146Y232819D01*
X158965Y234035D01*
X160181Y235854D01*
X160608Y238000D01*
X160181Y240146D01*
X158965Y241965D01*
X158059Y242571D01*
Y378733D01*
X259889Y480563D01*
X259948Y480518D01*
X262867Y479309D01*
X266000Y478896D01*
X269133Y479309D01*
X272052Y480518D01*
X274559Y482441D01*
X276482Y484948D01*
X277691Y487867D01*
X278104Y491000D01*
X277691Y494133D01*
X276482Y497052D01*
X274559Y499558D01*
X272052Y501482D01*
X269133Y502691D01*
X266000Y503104D01*
D02*
G37*
G36*
X178481Y489730D02*
X167270D01*
Y478519D01*
X169274Y478783D01*
X172324Y480046D01*
X174944Y482056D01*
X176954Y484676D01*
X178217Y487726D01*
X178481Y489730D01*
D02*
G37*
G36*
X56270Y523906D02*
Y519270D01*
X60906D01*
X60690Y520357D01*
X59355Y522355D01*
X57357Y523690D01*
X56270Y523906D01*
D02*
G37*
G36*
X53730D02*
X52643Y523690D01*
X50645Y522355D01*
X49310Y520357D01*
X49094Y519270D01*
X53730D01*
Y523906D01*
D02*
G37*
G36*
X316270Y522906D02*
Y518270D01*
X320906D01*
X320690Y519357D01*
X319355Y521355D01*
X317357Y522690D01*
X316270Y522906D01*
D02*
G37*
G36*
X110730Y523906D02*
X109643Y523690D01*
X107645Y522355D01*
X106311Y520357D01*
X106094Y519270D01*
X110730D01*
Y523906D01*
D02*
G37*
G36*
X369270D02*
Y519270D01*
X373906D01*
X373689Y520357D01*
X372355Y522355D01*
X370357Y523690D01*
X369270Y523906D01*
D02*
G37*
G36*
X366730D02*
X365643Y523690D01*
X363645Y522355D01*
X362310Y520357D01*
X362094Y519270D01*
X366730D01*
Y523906D01*
D02*
G37*
G36*
X113270D02*
Y519270D01*
X117906D01*
X117690Y520357D01*
X116355Y522355D01*
X114357Y523690D01*
X113270Y523906D01*
D02*
G37*
G36*
X366730Y516730D02*
X362094D01*
X362310Y515643D01*
X363645Y513645D01*
X365643Y512310D01*
X366730Y512094D01*
Y516730D01*
D02*
G37*
G36*
X117906D02*
X113270D01*
Y512094D01*
X114357Y512310D01*
X116355Y513645D01*
X117690Y515643D01*
X117906Y516730D01*
D02*
G37*
G36*
X110730D02*
X106094D01*
X106311Y515643D01*
X107645Y513645D01*
X109643Y512310D01*
X110730Y512094D01*
Y516730D01*
D02*
G37*
G36*
X373906D02*
X369270D01*
Y512094D01*
X370357Y512310D01*
X372355Y513645D01*
X373689Y515643D01*
X373906Y516730D01*
D02*
G37*
G36*
X313730Y522906D02*
X312643Y522690D01*
X310645Y521355D01*
X309310Y519357D01*
X309094Y518270D01*
X313730D01*
Y522906D01*
D02*
G37*
G36*
X167270Y521906D02*
Y517270D01*
X171906D01*
X171689Y518357D01*
X170355Y520355D01*
X168357Y521690D01*
X167270Y521906D01*
D02*
G37*
G36*
X164730D02*
X163643Y521690D01*
X161645Y520355D01*
X160310Y518357D01*
X160094Y517270D01*
X164730D01*
Y521906D01*
D02*
G37*
G36*
X49730Y384506D02*
X48643Y384290D01*
X46645Y382955D01*
X45311Y380957D01*
X45094Y379870D01*
X49730D01*
Y384506D01*
D02*
G37*
G36*
X282730Y291730D02*
X278094D01*
X278310Y290643D01*
X279645Y288645D01*
X281643Y287311D01*
X282730Y287094D01*
Y291730D01*
D02*
G37*
G36*
X273906D02*
X269270D01*
Y287094D01*
X270357Y287311D01*
X272355Y288645D01*
X273689Y290643D01*
X273906Y291730D01*
D02*
G37*
G36*
X266730D02*
X262094D01*
X262310Y290643D01*
X263645Y288645D01*
X265643Y287311D01*
X266730Y287094D01*
Y291730D01*
D02*
G37*
G36*
X289906D02*
X285270D01*
Y287094D01*
X286357Y287311D01*
X288355Y288645D01*
X289690Y290643D01*
X289906Y291730D01*
D02*
G37*
G36*
X266730Y298906D02*
X265643Y298690D01*
X263645Y297355D01*
X262310Y295357D01*
X262094Y294270D01*
X266730D01*
Y298906D01*
D02*
G37*
G36*
X327906Y291730D02*
X323270D01*
Y287094D01*
X324357Y287311D01*
X326355Y288645D01*
X327690Y290643D01*
X327906Y291730D01*
D02*
G37*
G36*
X320730D02*
X316094D01*
X316310Y290643D01*
X317645Y288645D01*
X319643Y287311D01*
X320730Y287094D01*
Y291730D01*
D02*
G37*
G36*
X219270Y254906D02*
Y250270D01*
X223906D01*
X223689Y251357D01*
X222355Y253355D01*
X220357Y254690D01*
X219270Y254906D01*
D02*
G37*
G36*
X216730D02*
X215643Y254690D01*
X213645Y253355D01*
X212310Y251357D01*
X212094Y250270D01*
X216730D01*
Y254906D01*
D02*
G37*
G36*
X16270Y247906D02*
Y243270D01*
X20906D01*
X20689Y244357D01*
X19355Y246355D01*
X17357Y247690D01*
X16270Y247906D01*
D02*
G37*
G36*
X216730Y261730D02*
X212094D01*
X212310Y260643D01*
X213645Y258645D01*
X215643Y257311D01*
X216730Y257094D01*
Y261730D01*
D02*
G37*
G36*
X219270Y268906D02*
Y264270D01*
X223906D01*
X223689Y265357D01*
X222355Y267355D01*
X220357Y268690D01*
X219270Y268906D01*
D02*
G37*
G36*
X216730D02*
X215643Y268690D01*
X213645Y267355D01*
X212310Y265357D01*
X212094Y264270D01*
X216730D01*
Y268906D01*
D02*
G37*
G36*
X223906Y261730D02*
X219270D01*
Y257094D01*
X220357Y257311D01*
X222355Y258645D01*
X223689Y260643D01*
X223906Y261730D01*
D02*
G37*
G36*
X365730Y372730D02*
X361094D01*
X361311Y371643D01*
X362645Y369645D01*
X364643Y368311D01*
X365730Y368094D01*
Y372730D01*
D02*
G37*
G36*
X16270Y321906D02*
Y317270D01*
X20906D01*
X20689Y318357D01*
X19355Y320355D01*
X17357Y321690D01*
X16270Y321906D01*
D02*
G37*
G36*
X13730D02*
X12643Y321690D01*
X10645Y320355D01*
X9310Y318357D01*
X9094Y317270D01*
X13730D01*
Y321906D01*
D02*
G37*
G36*
X372906Y372730D02*
X368270D01*
Y368094D01*
X369357Y368311D01*
X371355Y369645D01*
X372690Y371643D01*
X372906Y372730D01*
D02*
G37*
G36*
X371906Y385730D02*
X360094D01*
X360311Y384643D01*
X361645Y382645D01*
X363643Y381310D01*
X364963Y381048D01*
Y379753D01*
X364643Y379690D01*
X362645Y378355D01*
X361311Y376357D01*
X361094Y375270D01*
X372906D01*
X372690Y376357D01*
X371355Y378355D01*
X369357Y379690D01*
X368037Y379952D01*
Y381247D01*
X368357Y381310D01*
X370355Y382645D01*
X371690Y384643D01*
X371906Y385730D01*
D02*
G37*
G36*
X56906Y377331D02*
X52270D01*
Y372695D01*
X53357Y372911D01*
X55355Y374246D01*
X56690Y376244D01*
X56906Y377331D01*
D02*
G37*
G36*
X49730D02*
X45094D01*
X45311Y376244D01*
X46645Y374246D01*
X48643Y372911D01*
X49730Y372695D01*
Y377331D01*
D02*
G37*
G36*
X285270Y298906D02*
Y294270D01*
X289906D01*
X289690Y295357D01*
X288355Y297355D01*
X286357Y298690D01*
X285270Y298906D01*
D02*
G37*
G36*
X282730D02*
X281643Y298690D01*
X279645Y297355D01*
X278310Y295357D01*
X278094Y294270D01*
X282730D01*
Y298906D01*
D02*
G37*
G36*
X269270D02*
Y294270D01*
X273906D01*
X273689Y295357D01*
X272355Y297355D01*
X270357Y298690D01*
X269270Y298906D01*
D02*
G37*
G36*
X320730D02*
X319643Y298690D01*
X317645Y297355D01*
X316310Y295357D01*
X316094Y294270D01*
X320730D01*
Y298906D01*
D02*
G37*
G36*
X20906Y314730D02*
X16270D01*
Y310094D01*
X17357Y310310D01*
X19355Y311645D01*
X20689Y313643D01*
X20906Y314730D01*
D02*
G37*
G36*
X13730D02*
X9094D01*
X9310Y313643D01*
X10645Y311645D01*
X12643Y310310D01*
X13730Y310094D01*
Y314730D01*
D02*
G37*
G36*
X323270Y298906D02*
Y294270D01*
X327906D01*
X327690Y295357D01*
X326355Y297355D01*
X324357Y298690D01*
X323270Y298906D01*
D02*
G37*
%LPD*%
D20*
X218000Y206000D02*
X243500Y180500D01*
Y154000D02*
Y180500D01*
X218000Y206000D02*
Y249000D01*
Y263000D01*
X217000Y275000D02*
X238000Y292000D01*
X217000Y275000D02*
X218000Y263000D01*
X15000Y231000D02*
Y242000D01*
Y343000D02*
Y501000D01*
Y242000D02*
Y316000D01*
Y343000D01*
X51000Y379000D01*
X15000Y501000D02*
X32000Y518000D01*
X55000D01*
X112000D01*
X368000D01*
X322000Y292000D02*
X366000Y336000D01*
X238000Y292000D02*
X322000D01*
X65500Y180500D02*
X243500D01*
X366000Y336000D02*
Y387000D01*
X243500Y154000D02*
X349500D01*
Y95500D02*
Y154000D01*
X243500Y95000D02*
Y154000D01*
X15000Y231000D02*
X49000Y197000D01*
X65500Y180500D01*
X103500Y197500D02*
Y238500D01*
X127000Y262000D01*
D21*
X146000Y247000D02*
Y427000D01*
X210000Y491000D01*
X155000Y238000D02*
Y380000D01*
X266000Y491000D01*
X123651Y150000D02*
X125000D01*
X89000Y115349D02*
X123651Y150000D01*
X89000Y110651D02*
Y115349D01*
X68349Y90000D02*
X89000Y110651D01*
D22*
X53500Y115000D02*
D03*
X91000Y90000D02*
D03*
X103500Y115000D02*
D03*
X66000Y90000D02*
D03*
X116000D02*
D03*
X78500Y115000D02*
D03*
X349500Y154000D02*
D03*
X243500D02*
D03*
D23*
X135000Y26000D02*
D03*
X33000D02*
D03*
D24*
X384500Y104000D02*
D03*
X278500D02*
D03*
D25*
X166000Y491000D02*
D03*
X266000D02*
D03*
X216000D02*
D03*
D26*
X366000Y387000D02*
D03*
X218000Y249000D02*
D03*
Y263000D02*
D03*
Y224000D02*
D03*
X268000Y293000D02*
D03*
X322000D02*
D03*
X284000D02*
D03*
X15000Y242000D02*
D03*
X51000Y378601D02*
D03*
X15000Y316000D02*
D03*
X55000Y518000D02*
D03*
X112000D02*
D03*
X368000D02*
D03*
X315000Y517000D02*
D03*
X166000Y516000D02*
D03*
X146000Y247000D02*
D03*
X155000Y238000D02*
D03*
X367000Y374000D02*
D03*
X49000Y197000D02*
D03*
X243500Y135000D02*
D03*
X244000Y118000D02*
D03*
Y101000D02*
D03*
X349500Y100000D02*
D03*
Y119000D02*
D03*
Y136000D02*
D03*
X103500Y197500D02*
D03*
X127000Y262000D02*
D03*
X125000Y150000D02*
D03*
M02*
