%FSLAX44Y44*%
%MOMM*%
G71*
G01*
G75*
%ADD10R,0.6000X0.9000*%
%ADD11R,0.9000X0.6000*%
%ADD12R,1.3000X0.7000*%
%ADD13R,1.6800X1.5200*%
%ADD14O,0.3000X1.5000*%
%ADD15R,0.3000X1.5000*%
%ADD16R,1.5000X0.3000*%
%ADD17R,2.0000X1.2000*%
%ADD18R,5.6000X5.6000*%
%ADD19R,5.5000X2.0000*%
%ADD20C,1.0000*%
%ADD21C,0.2000*%
%ADD22C,1.5000*%
%ADD23O,0.7500X0.7000*%
%ADD24R,1.5000X1.5000*%
%ADD25C,2.0000*%
%ADD26C,0.7000*%
%ADD27R,0.2000X1.4000*%
%ADD28R,0.2000X1.4000*%
D21*
X369000Y219000D02*
X370000D01*
X369000D02*
Y263000D01*
X397000Y219000D02*
Y263000D01*
X396000Y219000D02*
X397000D01*
X265000D02*
X266000D01*
X265000D02*
Y263000D01*
X293000Y219000D02*
Y263000D01*
X292000Y219000D02*
X293000D01*
X233000Y215750D02*
X245000D01*
X18000Y128000D02*
X150000D01*
X18000Y-53000D02*
X150000D01*
X18000Y40500D02*
Y128000D01*
Y-53000D02*
Y10250D01*
X150000Y-53000D02*
Y10000D01*
Y42500D02*
Y128000D01*
X390000Y520250D02*
X402000D01*
X344000Y519250D02*
X356000D01*
X76000D02*
X88000D01*
X25000D02*
X37000D01*
X317000Y57000D02*
Y177000D01*
X402000D01*
Y57000D02*
Y177000D01*
X317000Y57000D02*
X402000D01*
X211000D02*
Y177000D01*
X296000D01*
Y57000D02*
Y177000D01*
X211000Y57000D02*
X296000D01*
X131000Y432000D02*
X301000D01*
Y526000D01*
X300000Y527000D02*
X301000Y526000D01*
X251000Y527000D02*
X300000D01*
X251000D02*
Y577000D01*
X246000D02*
X251000D01*
X246000D02*
Y747000D01*
X186000D02*
X246000D01*
X186000Y577000D02*
Y747000D01*
X181000Y577000D02*
X186000D01*
X181000Y527000D02*
Y577000D01*
X131000Y527000D02*
X181000D01*
X131000Y432000D02*
Y527000D01*
X392000Y465500D02*
Y467500D01*
X400000Y465500D02*
Y467500D01*
X346000Y465500D02*
Y467500D01*
X354000Y465500D02*
Y467500D01*
X78000Y465500D02*
Y467500D01*
X86000Y465500D02*
Y467500D01*
X27000Y465500D02*
Y467500D01*
X35000Y465500D02*
Y467500D01*
X124500Y162000D02*
X126500D01*
X124500Y170000D02*
X126500D01*
X235000Y264500D02*
Y266500D01*
X243000Y264500D02*
Y266500D01*
X87700Y229850D02*
X164150D01*
Y319150D01*
X74850D02*
X164150D01*
X74850Y242700D02*
Y319150D01*
Y242700D02*
X87700Y229850D01*
X304000Y331000D02*
X313000D01*
Y397000D01*
X304000D02*
X313000D01*
X344500Y330750D02*
X344750D01*
X182000Y415000D02*
Y420000D01*
X67000D02*
X182000D01*
X67000Y415000D02*
Y420000D01*
Y380000D02*
Y385000D01*
X182000Y380000D02*
Y385000D01*
X67000Y380000D02*
X182000D01*
X114000Y433997D02*
Y432331D01*
X117332Y428998D01*
X120665Y432331D01*
Y433997D01*
X117332Y428998D02*
Y424000D01*
X123997D02*
X127329D01*
X125663D01*
Y433997D01*
X123997Y432331D01*
X349997Y373000D02*
X341666D01*
X340000Y371334D01*
Y368002D01*
X341666Y366335D01*
X349997D01*
X340000Y356339D02*
Y363003D01*
X346665Y356339D01*
X348331D01*
X349997Y358005D01*
Y361337D01*
X348331Y363003D01*
X56000Y334997D02*
Y326666D01*
X57666Y325000D01*
X60998D01*
X62664Y326666D01*
Y334997D01*
X65997Y325000D02*
X69329D01*
X67663D01*
Y334997D01*
X65997Y333331D01*
X226000Y258000D02*
X219002D01*
Y261499D01*
X220168Y262665D01*
X222501D01*
X223667Y261499D01*
Y258000D01*
Y260333D02*
X226000Y262665D01*
Y268497D02*
X219002D01*
X222501Y264998D01*
Y269663D01*
X142000Y162000D02*
Y171997D01*
X146998D01*
X148665Y170331D01*
Y166998D01*
X146998Y165332D01*
X142000D01*
X145332D02*
X148665Y162000D01*
X151997Y170331D02*
X153663Y171997D01*
X156995D01*
X158661Y170331D01*
Y168664D01*
X156995Y166998D01*
X155329D01*
X156995D01*
X158661Y165332D01*
Y163666D01*
X156995Y162000D01*
X153663D01*
X151997Y163666D01*
X19000Y460000D02*
X9003D01*
Y464998D01*
X10669Y466665D01*
X14002D01*
X15668Y464998D01*
Y460000D01*
Y463332D02*
X19000Y466665D01*
Y476661D02*
Y469997D01*
X12335Y476661D01*
X10669D01*
X9003Y474995D01*
Y471663D01*
X10669Y469997D01*
X71000Y461000D02*
X61003D01*
Y465998D01*
X62669Y467664D01*
X66002D01*
X67668Y465998D01*
Y461000D01*
Y464332D02*
X71000Y467664D01*
Y477661D02*
Y470997D01*
X64335Y477661D01*
X62669D01*
X61003Y475995D01*
Y472663D01*
X62669Y470997D01*
X338000Y461000D02*
X328003D01*
Y465998D01*
X329669Y467664D01*
X333002D01*
X334668Y465998D01*
Y461000D01*
Y464332D02*
X338000Y467664D01*
Y477661D02*
Y470997D01*
X331335Y477661D01*
X329669D01*
X328003Y475995D01*
Y472663D01*
X329669Y470997D01*
X384000Y460000D02*
X374003D01*
Y464998D01*
X375669Y466665D01*
X379002D01*
X380668Y464998D01*
Y460000D01*
Y463332D02*
X384000Y466665D01*
Y476661D02*
Y469997D01*
X377336Y476661D01*
X375669D01*
X374003Y474995D01*
Y471663D01*
X375669Y469997D01*
X114000Y440000D02*
Y449997D01*
X118998D01*
X120665Y448331D01*
Y444998D01*
X118998Y443332D01*
X114000D01*
X117332D02*
X120665Y440000D01*
X123997D02*
X127329D01*
X125663D01*
Y449997D01*
X123997Y448331D01*
X211950Y185116D02*
Y195113D01*
X216948D01*
X218615Y193447D01*
Y190114D01*
X216948Y188448D01*
X211950D01*
X228611Y185116D02*
X221947D01*
X228611Y191780D01*
Y193447D01*
X226945Y195113D01*
X223613D01*
X221947Y193447D01*
X318122Y185116D02*
Y195113D01*
X323120D01*
X324786Y193447D01*
Y190114D01*
X323120Y188448D01*
X318122D01*
X328119Y185116D02*
X331451D01*
X329785D01*
Y195113D01*
X328119Y193447D01*
X25352Y146023D02*
X22020D01*
X23686D01*
Y137692D01*
X22020Y136026D01*
X20354D01*
X18688Y137692D01*
X28685Y136026D02*
X32017D01*
X30351D01*
Y146023D01*
X28685Y144357D01*
X271665Y324998D02*
X267000D01*
Y321499D01*
X269333D01*
X267000D01*
Y318000D01*
X273998Y324998D02*
Y318000D01*
X277497D01*
X278663Y319166D01*
Y320333D01*
X277497Y321499D01*
X273998D01*
X277497D01*
X278663Y322665D01*
Y323831D01*
X277497Y324998D01*
X273998D01*
X280996Y318000D02*
X283328D01*
X282162D01*
Y324998D01*
X280996Y323831D01*
X219002Y225000D02*
X226000D01*
Y228499D01*
X224834Y229665D01*
X220168D01*
X219002Y228499D01*
Y225000D01*
X226000Y235497D02*
X219002D01*
X222501Y231998D01*
Y236663D01*
X266052Y279744D02*
Y272746D01*
X269551D01*
X270717Y273912D01*
Y278577D01*
X269551Y279744D01*
X266052D01*
X273050Y278577D02*
X274216Y279744D01*
X276549D01*
X277715Y278577D01*
Y277411D01*
X276549Y276245D01*
X275382D01*
X276549D01*
X277715Y275079D01*
Y273912D01*
X276549Y272746D01*
X274216D01*
X273050Y273912D01*
X369938Y279744D02*
Y272746D01*
X373437D01*
X374603Y273912D01*
Y278577D01*
X373437Y279744D01*
X369938D01*
X381601Y272746D02*
X376936D01*
X381601Y277411D01*
Y278577D01*
X380435Y279744D01*
X378102D01*
X376936Y278577D01*
X25003Y529000D02*
X35000D01*
Y535664D01*
X25003Y545661D02*
Y538997D01*
X35000D01*
Y545661D01*
X30002Y538997D02*
Y542329D01*
X25003Y548994D02*
X35000D01*
Y553992D01*
X33334Y555658D01*
X26669D01*
X25003Y553992D01*
Y548994D01*
X26669Y558990D02*
X25003Y560657D01*
Y563989D01*
X26669Y565655D01*
X28335D01*
X30002Y563989D01*
Y562323D01*
Y563989D01*
X31668Y565655D01*
X33334D01*
X35000Y563989D01*
Y560657D01*
X33334Y558990D01*
X76003Y530000D02*
X86000D01*
Y536665D01*
X76003Y546661D02*
Y539997D01*
X86000D01*
Y546661D01*
X81002Y539997D02*
Y543329D01*
X76003Y549994D02*
X86000D01*
Y554992D01*
X84334Y556658D01*
X77669D01*
X76003Y554992D01*
Y549994D01*
X86000Y566655D02*
Y559990D01*
X79335Y566655D01*
X77669D01*
X76003Y564989D01*
Y561656D01*
X77669Y559990D01*
X344003Y529000D02*
X354000D01*
Y535664D01*
X344003Y545661D02*
Y538997D01*
X354000D01*
Y545661D01*
X349002Y538997D02*
Y542329D01*
X344003Y548994D02*
X354000D01*
Y553992D01*
X352334Y555658D01*
X345669D01*
X344003Y553992D01*
Y548994D01*
X354000Y558990D02*
Y562323D01*
Y560657D01*
X344003D01*
X345669Y558990D01*
X390003Y529000D02*
X400000D01*
Y535664D01*
X390003Y545661D02*
Y538997D01*
X400000D01*
Y545661D01*
X395002Y538997D02*
Y542329D01*
X390003Y548994D02*
X400000D01*
Y553992D01*
X398334Y555658D01*
X391669D01*
X390003Y553992D01*
Y548994D01*
X391669Y558990D02*
X390003Y560657D01*
Y563989D01*
X391669Y565655D01*
X398334D01*
X400000Y563989D01*
Y560657D01*
X398334Y558990D01*
X391669D01*
X242665Y322831D02*
X241499Y323998D01*
X239166D01*
X238000Y322831D01*
Y318166D01*
X239166Y317000D01*
X241499D01*
X242665Y318166D01*
X244998Y317000D02*
X247330D01*
X246164D01*
Y323998D01*
X244998Y322831D01*
X255494Y323998D02*
X250829D01*
Y320499D01*
X253162Y321665D01*
X254328D01*
X255494Y320499D01*
Y318166D01*
X254328Y317000D01*
X251996D01*
X250829Y318166D01*
X303665Y323831D02*
X302499Y324998D01*
X300166D01*
X299000Y323831D01*
Y319166D01*
X300166Y318000D01*
X302499D01*
X303665Y319166D01*
X305998Y318000D02*
X308330D01*
X307164D01*
Y324998D01*
X305998Y323831D01*
X315328Y318000D02*
Y324998D01*
X311829Y321499D01*
X316494D01*
X358136Y313810D02*
X356470Y315476D01*
X353138D01*
X351472Y313810D01*
Y307145D01*
X353138Y305479D01*
X356470D01*
X358136Y307145D01*
X361469Y305479D02*
X364801D01*
X363135D01*
Y315476D01*
X361469Y313810D01*
X369799D02*
X371465Y315476D01*
X374798D01*
X376464Y313810D01*
Y312144D01*
X374798Y310478D01*
X373132D01*
X374798D01*
X376464Y308811D01*
Y307145D01*
X374798Y305479D01*
X371465D01*
X369799Y307145D01*
X404331Y370336D02*
X405997Y372002D01*
Y375334D01*
X404331Y377000D01*
X397666D01*
X396000Y375334D01*
Y372002D01*
X397666Y370336D01*
X396000Y367003D02*
Y363671D01*
Y365337D01*
X405997D01*
X404331Y367003D01*
X396000Y352008D02*
Y358673D01*
X402664Y352008D01*
X404331D01*
X405997Y353674D01*
Y357006D01*
X404331Y358673D01*
X352233Y256450D02*
X351067Y257616D01*
X348734D01*
X347568Y256450D01*
Y251784D01*
X348734Y250618D01*
X351067D01*
X352233Y251784D01*
X354566Y250618D02*
X356898D01*
X355732D01*
Y257616D01*
X354566Y256450D01*
X360397Y250618D02*
X362730D01*
X361563D01*
Y257616D01*
X360397Y256450D01*
X34669Y314664D02*
X33003Y312998D01*
Y309666D01*
X34669Y308000D01*
X41334D01*
X43000Y309666D01*
Y312998D01*
X41334Y314664D01*
X43000Y317997D02*
Y321329D01*
Y319663D01*
X33003D01*
X34669Y317997D01*
Y326327D02*
X33003Y327994D01*
Y331326D01*
X34669Y332992D01*
X41334D01*
X43000Y331326D01*
Y327994D01*
X41334Y326327D01*
X34669D01*
X11669Y314664D02*
X10003Y312998D01*
Y309666D01*
X11669Y308000D01*
X18334D01*
X20000Y309666D01*
Y312998D01*
X18334Y314664D01*
Y317997D02*
X20000Y319663D01*
Y322995D01*
X18334Y324661D01*
X11669D01*
X10003Y322995D01*
Y319663D01*
X11669Y317997D01*
X13335D01*
X15002Y319663D01*
Y324661D01*
X109664Y359331D02*
X107998Y360997D01*
X104666D01*
X103000Y359331D01*
Y352666D01*
X104666Y351000D01*
X107998D01*
X109664Y352666D01*
X112997Y359331D02*
X114663Y360997D01*
X117995D01*
X119661Y359331D01*
Y357664D01*
X117995Y355998D01*
X119661Y354332D01*
Y352666D01*
X117995Y351000D01*
X114663D01*
X112997Y352666D01*
Y354332D01*
X114663Y355998D01*
X112997Y357664D01*
Y359331D01*
X114663Y355998D02*
X117995D01*
X136664Y358331D02*
X134998Y359997D01*
X131666D01*
X130000Y358331D01*
Y351666D01*
X131666Y350000D01*
X134998D01*
X136664Y351666D01*
X139997Y359997D02*
X146661D01*
Y358331D01*
X139997Y351666D01*
Y350000D01*
X204331Y225336D02*
X205997Y227002D01*
Y230334D01*
X204331Y232000D01*
X197666D01*
X196000Y230334D01*
Y227002D01*
X197666Y225336D01*
X205997Y215339D02*
X204331Y218671D01*
X200998Y222003D01*
X197666D01*
X196000Y220337D01*
Y217005D01*
X197666Y215339D01*
X199332D01*
X200998Y217005D01*
Y222003D01*
X18669Y254664D02*
X17003Y252998D01*
Y249666D01*
X18669Y248000D01*
X25334D01*
X27000Y249666D01*
Y252998D01*
X25334Y254664D01*
X17003Y264661D02*
Y257997D01*
X22002D01*
X20336Y261329D01*
Y262995D01*
X22002Y264661D01*
X25334D01*
X27000Y262995D01*
Y259663D01*
X25334Y257997D01*
X186665Y366331D02*
X184998Y367997D01*
X181666D01*
X180000Y366331D01*
Y359666D01*
X181666Y358000D01*
X184998D01*
X186665Y359666D01*
X194995Y358000D02*
Y367997D01*
X189997Y362998D01*
X196661D01*
X186665Y350331D02*
X184998Y351997D01*
X181666D01*
X180000Y350331D01*
Y343666D01*
X181666Y342000D01*
X184998D01*
X186665Y343666D01*
X189997Y350331D02*
X191663Y351997D01*
X194995D01*
X196661Y350331D01*
Y348665D01*
X194995Y346998D01*
X193329D01*
X194995D01*
X196661Y345332D01*
Y343666D01*
X194995Y342000D01*
X191663D01*
X189997Y343666D01*
X204331Y300835D02*
X205997Y302502D01*
Y305834D01*
X204331Y307500D01*
X197666D01*
X196000Y305834D01*
Y302502D01*
X197666Y300835D01*
X196000Y290839D02*
Y297503D01*
X202665Y290839D01*
X204331D01*
X205997Y292505D01*
Y295837D01*
X204331Y297503D01*
X151664Y200331D02*
X149998Y201997D01*
X146666D01*
X145000Y200331D01*
Y193666D01*
X146666Y192000D01*
X149998D01*
X151664Y193666D01*
X154997Y192000D02*
X158329D01*
X156663D01*
Y201997D01*
X154997Y200331D01*
D27*
X370000Y257000D02*
D03*
X266000D02*
D03*
D28*
X396000Y257000D02*
D03*
X292000D02*
D03*
M02*
