%FSLAX44Y44*%
%MOMM*%
G71*
G01*
G75*
G04 Layer_Color=16711935*
%ADD10R,0.6000X0.9000*%
%ADD11R,0.9000X0.6000*%
%ADD12R,1.3000X0.7000*%
%ADD13R,1.6800X1.5200*%
%ADD14O,0.3000X1.5000*%
%ADD15R,0.3000X1.5000*%
%ADD16R,1.5000X0.3000*%
%ADD17R,2.0000X1.2000*%
%ADD18R,5.6000X5.6000*%
%ADD19R,5.5000X2.0000*%
%ADD20C,1.0000*%
%ADD21C,0.2000*%
%ADD22C,1.5000*%
%ADD23O,0.7500X0.7000*%
%ADD24R,1.5000X1.5000*%
%ADD25C,2.0000*%
%ADD26C,0.7000*%
%ADD27R,0.2000X1.4000*%
%ADD28R,0.2000X1.4000*%
%ADD29R,1.0000X1.3000*%
%ADD30R,1.3000X1.0000*%
%ADD31R,1.7000X1.1000*%
%ADD32R,2.0800X1.9200*%
%ADD33O,0.7000X1.9000*%
%ADD34R,0.7000X1.9000*%
%ADD35R,1.9000X0.7000*%
%ADD36R,2.4000X1.6000*%
%ADD37R,6.0000X6.0000*%
%ADD38R,5.9000X2.4000*%
%ADD39C,1.9000*%
%ADD40O,1.1500X1.1000*%
%ADD41R,1.9000X1.9000*%
%ADD42C,2.4000*%
%ADD43C,0.9032*%
D39*
X53500Y115000D02*
D03*
X91000Y90000D02*
D03*
X103500Y115000D02*
D03*
X66000Y90000D02*
D03*
X116000D02*
D03*
X78500Y115000D02*
D03*
X349500Y154000D02*
D03*
X243500D02*
D03*
D40*
X135000Y26000D02*
D03*
X33000D02*
D03*
D41*
X384500Y104000D02*
D03*
X278500D02*
D03*
D42*
X166000Y491000D02*
D03*
X266000D02*
D03*
X216000D02*
D03*
D43*
X366000Y387000D02*
D03*
X218000Y249000D02*
D03*
Y263000D02*
D03*
Y224000D02*
D03*
X268000Y293000D02*
D03*
X322000D02*
D03*
X284000D02*
D03*
X15000Y242000D02*
D03*
X51000Y378601D02*
D03*
X15000Y316000D02*
D03*
X55000Y518000D02*
D03*
X112000D02*
D03*
X368000D02*
D03*
X315000Y517000D02*
D03*
X166000Y516000D02*
D03*
X146000Y247000D02*
D03*
X155000Y238000D02*
D03*
X367000Y374000D02*
D03*
X49000Y197000D02*
D03*
X243500Y135000D02*
D03*
X244000Y118000D02*
D03*
Y101000D02*
D03*
X349500Y100000D02*
D03*
Y119000D02*
D03*
Y136000D02*
D03*
X103500Y197500D02*
D03*
X127000Y262000D02*
D03*
X125000Y150000D02*
D03*
M02*
